<svg xmlns="http://www.w3.org/2000/svg" width="269" height="364" viewBox="0 0 269 364"><defs><linearGradient id="a" x1="100%" x2="0%" y1="57.465%" y2="57.465%"><stop offset="0%" stop-color="#E21A2B"/><stop offset="74.771%" stop-color="#851218"/><stop offset="100%" stop-color="#490505"/></linearGradient></defs><path d="M92.229 84.592v51.267h94.79c49.189 0 81.981 33.324 81.981 76.902v74.338c0 43.577-32.792 76.901-81.981 76.901h-105.038c-49.189 0-81.981-33.324-81.981-76.901v-210.199c0-43.576 32.792-76.9 81.981-76.9h171.648v43.577l-20.496 23.07h-122.971c-10.248 0-17.933 7.691-17.933 17.945zm17.933 212.76h48.676c10.248 0 17.933-7.69 17.933-17.944v-58.957c0-10.254-7.685-17.944-17.933-17.944h-66.61v76.901c0 10.254 7.686 17.944 17.934 17.944z" fill="url(#a)"/></svg>