<svg xmlns="http://www.w3.org/2000/svg" width="269" height="364" viewBox="0 0 269 364">
    <defs>
        <linearGradient id="b" x1="100%" x2="0%" y1="57.465%" y2="57.465%">
            <stop offset="0%" stop-color="#E21A2B"/>
            <stop offset="74.771%" stop-color="#851218"/>
            <stop offset="100%" stop-color="#490505"/>
        </linearGradient>
    </defs>
    <g fill="none" fill-rule="evenodd">
        <path  d="M-1004-262H436V762h-1440z"/>
        <path fill="url(#a)" d="M0 0h560l60 60v750H60L0 750z" transform="translate(-284 -158)"/>
        <g fill="url(#b)" transform="translate(-216)">
            <path d="M308.229 84.592v51.267h94.79c49.189 0 81.981 33.324 81.981 76.902v74.338C485 330.676 452.208 364 403.019 364H297.981C248.792 364 216 330.676 216 287.099V76.9C216 33.324 248.792 0 297.981 0h171.648v43.577l-20.496 23.07H326.162c-10.248 0-17.933 7.691-17.933 17.945zm17.933 212.76h48.676c10.248 0 17.933-7.69 17.933-17.944v-58.957c0-10.254-7.685-17.944-17.933-17.944h-66.61v76.901c0 10.254 7.686 17.944 17.934 17.944z"/>
           </g>
    </g>
</svg>
