<svg xmlns="http://www.w3.org/2000/svg" width="435" height="202" viewBox="0 0 435 202"><defs><linearGradient id="a" x1="100%" x2="0%" y1="57.465%" y2="57.465%"><stop offset="0%" stop-color="#E21A2B"/><stop offset="74.771%" stop-color="#851218"/><stop offset="100%" stop-color="#490505"/></linearGradient></defs><g fill="url(#a)" fill-rule="evenodd"><path d="M411.05 198.892h-67.167v-33.562h-89.558v-47.547l65.769-114.674h90.957v111.877h23.788v50.344h-23.788v33.563zm-64.369-131.455h-2.798l-22.39 47.548h25.188v-47.548zM303.277 39.157v123.065c0 22.375-16.792 39.156-39.181 39.156h-79.762c-22.39 0-39.181-16.781-39.181-39.156v-123.065c0-22.375 17.631-39.157 38.901-39.157h80.042c22.39 0 39.181 16.782 39.181 39.157zm-67.168 11.188h-23.788v100.689h23.788v-100.69zM156.725 198.892h-67.168v-33.562h-89.557v-47.547l65.769-114.674h90.956v111.877h23.789v50.344h-23.789v33.563zm-64.369-131.455h-2.799l-22.389 47.548h25.188v-47.548z"/></g></svg>