<svg xmlns="http://www.w3.org/2000/svg" width="435" height="202" viewBox="0 0 435 202">
    <defs>
        <linearGradient id="a" x1="100%" x2="0%" y1="57.465%" y2="57.465%">
            <stop offset="0%" stop-color="#E21A2B"/>
            <stop offset="74.771%" stop-color="#851218"/>
            <stop offset="100%" stop-color="#490505"/>
        </linearGradient>
    </defs>
    <g fill="url(#404)" fill-rule="evenodd" transform="translate(-80 -228)">
        <path d="M491.05 426.892h-67.167V393.33h-89.558v-47.547l65.769-114.674h90.957v111.877h23.788v50.344h-23.788v33.563zm-64.369-131.455h-2.798l-22.39 47.548h25.188v-47.548z"/>
        <path d="M383.277 267.157v123.065c0 22.375-16.792 39.156-39.181 39.156h-79.762c-22.39 0-39.181-16.781-39.181-39.156V267.157c0-22.375 17.631-39.157 38.901-39.157h80.042c22.39 0 39.181 16.782 39.181 39.157zm-67.168 11.188h-23.788v100.689h23.788v-100.69z"/>
        <path d="M236.725 426.892h-67.168V393.33H80v-47.547l65.769-114.674h90.956v111.877h23.789v50.344h-23.789v33.563zm-64.369-131.455h-2.799l-22.389 47.548h25.188v-47.548z"/>
    </g>
</svg>
