<svg xmlns="http://www.w3.org/2000/svg" width="187" height="246" viewBox="0 0 187 246">
    <g fill="none" fill-rule="evenodd">
        <path fill="url(#a)" d="M0 0h800l60 61v749H60L0 750z" transform="translate(-336 -92)"/>
        <g fill="#FFF" opacity=".8">
            <path d="M83.132 39.318c-3.18.04-7.167.748-10.054.682.93-2.543 5.244-2.335 7.758-2.543.432-.04.797-.224 1.24-.125.072.443 1.007 1.515 1.056 1.986zm30.342.618c-2.077.829-5.173-.554-7.88-.248-.194-.51.932-1.714 1.057-2.295.92.01 2.796.343 3.784.62 1.084.307 2.821 1.025 3.04 1.923zM95.371 69.408h.238c.421 1.633.196 4.343.358 6.315.12 1.474.321 3.408-.596 4.051-.255-3.235-.118-7.107 0-10.366zm-21.327.954h.358c1.008 2.445 2.404 5.14 3.096 7.504-.871.255-.861-.905-1.072-1.43-.694-1.729-1.705-3.94-2.384-5.718.002-.116.002-.236.002-.356zm42.65.596c.05.976-.657 2.48-1.189 3.813-.252.63-.576 1.256-.834 1.903-.223.567-.297 1.481-.951 1.668-.165-1.175.642-2.536 1.192-3.811.532-1.239 1.047-2.634 1.783-3.573zm-54.683.716h.358c1.146 2.283 3.083 4.833 4.766 7.266 1.732 2.504 3.394 5.077 5.124 7.384.11.564.08 1.268.238 1.788-3.574-5.285-7.037-10.678-10.486-16.082-.21-.086-.017-.216 0-.356zm-10.603 6.195c7.09 6.243 13.37 13.193 20.372 19.655.957.885 2.532 1.83 2.264 3.453-.368.14-.976-.618-1.43-1.072-7.04-7.04-14.28-14.787-21.206-22.036zm63.742 25.254c-.43-1.982 1.488-2.801 2.74-4.052 6.533-6.535 13.678-13.372 20.016-19.655h.356c-7.5 8.024-15.509 16.18-23.112 23.707zm23.35-9.65c-3.876 3.068-8.055 5.743-12.154 8.575a862.998 862.998 0 0 1-12.27 8.338c.154-.48.308-.96.235-1.667 7.983-5.123 15.903-10.307 23.828-15.49.16.047.191.214.36.244zm31.333 19.773c.272.203.047.907.118 1.31-.366-.172-.248-.967-.118-1.31zm-52.78 11.317c.297-.02.368.187.596.238 1.273-.04-.841.476-.596-.238zm-36.813 17.39c-.084 1.027-.177 2.047-.358 2.98-.606.007.108-1.303-.479-1.313-.635.314-.358 1.369-.358 2.026 0 2.528-.328 6.496.476 8.22a1.43 1.43 0 0 0 0 1.785c-.885 2.72-.512 7.865-.238 10.962 2.877 1.39 2.043-3.708 1.788-5.48 1.006-.464.84-2.1 1.31-3.098-.123 1.513.17 2.61 1.192 2.98-.63 1.704-.432 5.13-.12 7.028-.353.206-.935.177-.954.716-1.837-.051-4.219-.414-6.076-.118-.495-.181-.775-.576-1.312-.713.084-.989.096-2.05.358-2.86.591.005-.046 1.236.358 1.43.226-2.926.763-8.632-.358-10.842.246-.4.638-1.26 0-1.547 1.033-2.465.655-7.6.358-10.602-.35.206.113 1.227-.238 1.43-.456-.576-.213-1.849-.358-2.74.788-1.291 2.46.187 3.694-.715.51.086.64.552 1.315.47zm7.508-.476c.088.427.551.48.951.596-.28.951-.11 2.352-.476 3.217-.51-.046-.112-.998-.237-1.43-.636.98-.359 2.777-.359 4.407 0 2.342-.345 4.866.596 6.077-.49.626-.49 1.163 0 1.786-1.12 2.418-.49 7.212-.475 10.366.299.708 1.672.524 2.023 0-.007-3.184.67-8.046-.476-10.484.23-.167.353-.444.476-.716-.042-.356-.191-.606-.358-.834.883-2.693.424-7.357.358-10.601-.728-.091-.088 1.184-.476 1.43-.451-.739-.267-2.115-.358-3.218.753-1.018 1.967.25 2.978-.596.314.282.657.535 1.072.716-.206 1.067.063 2.607-.599 3.217-.088-.505.22-1.41-.238-1.55.098 2.656-.532 6.796-.12 9.41.079.49.155.952.596 1.192-.14.3-.476.4-.476.834-.054.49.427.446.476.831-1.81 3.352 1.231 11.556-2.86 12.627-.699-.422-2.313-.561-2.977 0-4.104-1.098-.871-9.534-2.74-12.865.515-.407.311-1.079 0-1.547 1.023-2.484.652-7.588.358-10.602-.591.005.047 1.236-.358 1.428-.557-.716-.39-2.153-.716-3.098.696.067.937-.333 1.31-.595.83.448 2.288.46 3.105.002zm11.317.596c-.035 1.108.147 1.996.237 2.98-.667-.05-.223-1.21-.716-1.43-.255 1.66.43 4.404.596 6.432.69-2.01 1.163-4.237 1.548-6.552-.783.012-.066 1.522-.834 1.55-.034-1.067.21-1.857.12-2.98.594-.042.986-.285 1.312-.596.697.41 1.565.41 2.262 0 .073.324.328.466.716.476-.218 1.091-.48 2.143-.834 3.1-.505.007.191-1.119-.238-1.43-.716 1.192-.986 2.99-1.43 4.765-.52 2.091-1.619 4.522-.714 5.956-.105.209-.287.349-.358.594.155.284.228.647.599.716-.204.233-.209.667-.358.954.46 3.507.949 6.994 1.788 10.125.532-.161.127-1.272.118-1.667.836.515.645 2.055 1.192 2.86-.265.367-1.067.203-1.072.833-1.352-.895-2.939.329-4.052-.476-.16-.993-.331-1.971-.358-3.097.564.191.243 1.265.716 1.547.405-2.084-.69-4.703-.716-7.148-.903 1.999-1.192 4.603-1.668 7.028.745-.09.206-1.461.954-1.547-.088 1.064-.213 2.09-.24 3.217-1.11.69-1.833-.213-3.096.358-.507-.049-.505-.608-1.074-.596.456-.895.314-2.386 1.074-2.977.074.535-.326 1.016 0 1.43.739-1.2.996-2.967 1.43-4.765.474-1.962 1.379-4.385.716-5.836 0-.356.31-.407.358-.716-.036-.479-.45-.58-.596-.954.16-.076.221-.255.238-.476-.353-3.62-.816-7.127-1.788-10.126-.407.339.314 1.187 0 1.43-.824-.564-.642-2.139-1.072-3.1.92-.907 2.608.41 3.812-.476.508.162.73.613 1.428.594zm14.059 0c-.57 1.817-.427 4.917-.12 6.91-.918.51-1.082 1.776-1.193 3.098-.488-.942-.076-2.784-1.43-2.86.366-1.236.989-5.755-.475-5.954-1.646-.225-1.075 3.725-1.075 5.954 0 1.83-.309 3.816.476 4.648 1.344-.324-.643-2.504.954-2.86.488-.056-.051.255.118.596.493.608 1.58 2.011.358 2.62.118.318.48.392.714.595-.01.464-.48.47-.714.716 1.712 1.327-.971 2.45-.358 3.69-1.99-.112.417-2.817-1.072-3.096-.831 1.027-.476 3.315-.476 5.123 0 1.858-.095 3.84.12 5.36 2.698 1.629 1.75-4.277 1.548-5.956 1.077-.314 1.288-1.494 1.192-2.98.579.93.093 2.923 1.548 2.98-.721 1.753-.63 5.346-.118 7.266-.26.297-.765.346-.954.713-.908-.667-1.984.108-3.098.118-1.155.008-2.389-.907-3.215 0-.356-.282-.675-.596-1.075-.834.035-1.118.072-2.231.358-3.097.582.096-.024 1.373.359 1.668.623-.895.358-2.367.358-3.811 0-2.519.233-5.435-.717-7.031.135-.26.4-.395.476-.716-.044-.353-.206-.586-.476-.714 1.173-2.366.783-7.55.476-10.601-.544.09.015 1.287-.358 1.547-.478-.635-.301-1.92-.476-2.857.417-1.017 1.344-.502 2.384-.475 1.251.031 2.914-.822 4.05 0 .439-.04.66-.297 1.074-.358.182.299.41.549.837.598zm23.47 21.085c-5.96-5.248-11.707-11.617-17.87-17.272-1.048-.961-2.775-2.016-2.265-3.455.106-.071.211-.145.238 0 5.764 6.033 12.028 11.881 17.753 18.108.743.81 1.8 1.523 2.144 2.619zm-64.458-6.79c.324.036.213.502.478.593-3.414 5.125-6.764 10.312-10.483 15.13 2.89-5.21 6.76-10.473 10.005-15.724zm23.352 15.248c.646.052.341.92.359 1.31.115 2.857.022 6.336-.359 8.933-.306-3.185.047-7.035-.237-10.243h.237zM128.85 72.39c-3.544 5.944-7.914 12.097-11.675 18.223-.274-.28-.041-1.069-.12-1.547 3.15-4.517 6.632-9.53 9.89-14.415.64-.964 1.177-1.793 1.905-2.261z"/>
            <path fill-rule="nonzero" d="M75.388 165.137l-.287 2.879c.464 0 1.03.427 1.173.748.319-.25.569-.358.998-.358.569 0 1.03.108 1.491.213.427.106.854.143 1.352.143.247 0 .498-.072.745-.143.25-.036.464-.105.677-.105.143 0 .282.034.461.069.143.036.287.107.427.179.214-.359.64-.638 1.104-.675-.213-.392-.358-.888-.358-2.523v-2.028c0-1.565.145-2.134.392-2.487-.961-.392-1.209-.927-1.209-2.916h-.25c0 2.094-.142 2.487-1.104 2.88.142.355.321.958.321 2.523v1.778c0 .995-.179 1.564-1.174 1.564-.994 0-1.104-.569-1.104-1.564v-7.147c0-1.6.108-2.24.535-2.665a.735.735 0 0 1-.427-.675c0-.284.142-.605.427-.748-.427-.426-.535-.924-.535-2.844v-6.97c0-.46.071-.637.284-.637.214 0 .285.142.322.424v.961h.25l.356-2.95c-.427 0-.962-.284-1.141-.569-.213.145-.782.356-1.386.356-.287 0-.603-.035-.853-.106a2.034 2.034 0 0 1-.606-.25c-.142.285-.709.57-1.067.57l.213 2.912h.248v-.816c0-.498.071-.638.213-.638.143 0 .248.108.248.606v7.11c0 1.28-.248 2.49-.674 2.844a.921.921 0 0 1 .426.748.695.695 0 0 1-.108.355 1.07 1.07 0 0 1-.353.322c.39.319.71 1.03.71 2.665v7.858c0 .392-.072.532-.249.532-.176 0-.213-.142-.213-.39v-1.033h-.275v-.002zm16.64-23.643c-.25.321-.748.356-1.175.356a2.96 2.96 0 0 1-.567-.071c-.216-.072-.358-.143-.5-.285-.142.356-.532.606-.851.606l.142 3.234h.285v-.995c0-.353.142-.461.284-.461s.25.108.25.569v7.536c0 1.528-.25 2.273-.569 2.523.285.142.425.535.425.782 0 .32-.211.606-.425.748.319.287.57 1.21.57 1.92v7.679c0 .922-.32 1.351-1.21 1.351-.927 0-1.104-.463-1.104-1.351v-6.08c0-2.665.427-3.268.714-3.519-.284-.142-.498-.497-.498-.748 0-.247.142-.566.498-.745-.321-.321-.714-.89-.714-2.42v-7.429c0-.537.145-.782.25-.782.143 0 .216.071.216.353v1.067h.28l.321-3.235c-.392 0-.856-.25-.998-.605-.356.355-.962.355-1.528.355-.282 0-.57-.034-.82-.07-.25-.072-.46-.143-.637-.285-.25.355-.817.677-1.28.677l.498 3.02h.284v-1.137c0-.177.071-.321.177-.321.07 0 .247.108.247.463v7.926c0 1.636-.247 2.065-.566 2.347.282.216.39.498.39.745 0 .25-.142.464-.356.677.248.285.53.783.53 2.276v7.465c0 2.239 1.994 3.127 2.42 3.127.143-.25.425-.358 1.139-.358.39 0 .64.036.851.073.213.069.356.142.461.285.89 0 2.524-1.136 2.524-3.556v-6.433c0-1.388.284-2.452.677-2.702-.285-.18-.5-.43-.5-.714s.107-.566.429-.782c-.395-.319-.609-.993-.609-2.06v-8.179c0-.353.072-.46.214-.46.142 0 .179.107.179.497v1.07h.284l.356-3.272c-.383.007-.812-.28-.988-.672zm1.815.572l.782 3.023h.356l-.216-1.138c-.037-.215.037-.358.145-.358.142 0 .25.18.318.5l1.389 8.106c.213 1.209.14 1.74-.177 2.204a.908.908 0 0 1 .567.817c0 .25-.145.426-.322.606.393.426.464.922.214 1.954l-1.953 8.25c-.108.426-.215.532-.358.532-.105 0-.179-.142-.179-.358l.142-1.101h-.25l-.78 2.952c.356.074.746.39.888.711.25-.25.64-.358.964-.358.177 0 .39.037.604.074.176.069.39.142.497.284.211-.32.712-.463 1.136-.463l.25-3.164h-.25l-.319 1.21c-.07.25-.142.355-.252.355-.143 0-.177-.142-.106-.532l1.423-6.543h.176l.999 6.648c.034.322 0 .461-.108.461-.18 0-.32-.105-.393-.392l-.248-1.172h-.247l.392 3.127c.393 0 .854.142 1.101.463.32-.25.962-.358 1.457-.358.216 0 .498.037.748.074.248.068.533.142.712.284.144-.358.64-.638 1.103-.638l-.89-2.989h-.25l.142 1.28c0 .285-.034.39-.179.39-.176 0-.282-.105-.355-.461l-1.457-8.532c-.18-1.138.036-1.812.284-2.099-.21-.034-.566-.319-.566-.674 0-.287.068-.464.284-.606-.321-.39-.569-.745-.321-1.778l2.134-8.497c.108-.353.179-.461.358-.461.144 0 .213.07.176.319l-.142 1.103h.248l.819-3.095c-.392 0-.714-.247-.82-.532-.247.213-.674.356-1.03.356-.176 0-.426-.035-.637-.106-.18-.07-.358-.142-.464-.25-.284.356-.816.606-1.351.606l-.106 2.99h.25l.214-1.212c.034-.248.069-.319.21-.319.143 0 .251.071.18.319l-1.457 6.258h-.145l-.745-6.01c-.037-.356-.037-.498.07-.498.143 0 .283.103.322.355l.209 1.104h.25l-.285-2.99c-.498 0-.993-.213-1.172-.605-.319.213-.962.355-1.565.355-.284 0-.64-.034-.927-.105-.316-.071-.57-.142-.675-.25-.144.289-.46.5-.816.574zm19.374 18.699c-.994-.464-1.244-.643-1.244-2.987h-.245c0 2.207-.287 2.523-1.248 2.915.213.43.25 1.138.25 1.957v2.558c0 1.565-.214 1.812-.886 1.812-.748 0-1.03-.247-1.03-1.1v-7.289c0-1.991 0-2.452.567-2.452.213 0 .495.213.495.534 0 .285-.034.464-.142.672-.106.25-.213.572-.213.927 0 .638.46.993.89.925a.966.966 0 0 1-.214-.606c0-.25.214-.461.673-.89.252-.282.429-.567.429-.996 0-.498-.248-.853-.606-1.138l.82-.605-.786-.675c.395-.25.57-.603.57-.998 0-.356-.248-.777-.43-.956-.356-.36-.495-.57-.495-.785 0-.211.036-.39.14-.567-.317-.036-.92.393-.92.962 0 .284.07.569.142.78.071.176.142.284.142.566 0 .213-.176.535-.424.535-.393 0-.638-.14-.638-1.707v-7.073c0-1.424.353-1.812.957-1.812.677 0 .959.532.959 1.778v2.168c0 1.172-.106 1.636-.353 1.954.995.427 1.243.964 1.243 2.916h.285c0-2.028.176-2.489 1.172-2.916-.213-.39-.248-.995-.248-1.92v-3.411c0-1.032.106-1.53.322-1.707-.359-.037-.82-.355-.925-.64-.25.18-.606.356-.854.356-.426 0-.713-.143-.995-.211a3.603 3.603 0 0 0-.996-.145c-.25 0-.498.037-.82.145-.32.108-.71.21-1.277.21-.285 0-.606-.034-.854-.105-.25-.07-.427-.142-.569-.25-.248.356-.64.606-1.099.64l.317 3.058h.284v-1.174c.034-.285.106-.388.285-.388.142 0 .176.103.176.388v7.361c0 1.636-.319 2.526-.637 2.843.247.213.424.5.424.71 0 .251-.177.57-.424.712.247.356.637 1.209.637 3.52v6.826c0 .393-.068.533-.247.533-.18 0-.214-.143-.214-.567v-1.14h-.319l-.323 3.2c.355.074.924.427 1.066.748.25-.25.57-.358.888-.358.43 0 .854.074 1.21.142.355.071.71.214 1.138.214.534 0 .819-.108 1.103-.18.25-.068.533-.176.996-.176.214 0 .39.037.57.074.178.034.32.105.497.176.106-.213.672-.53.962-.603-.25-.285-.322-.498-.322-2.24v-3.165c-.002-.888.14-1.562.388-1.883zm-15.587-31.12l-.655 6.547c.728.145 1.89.87 2.183 1.528.51-.51 1.165-.728 1.82-.728.873 0 1.746.144 2.474.291.726.148 1.455.437 2.326.437 1.091 0 1.677-.218 2.256-.363.51-.147 1.094-.365 2.038-.365.437 0 .8.073 1.165.144.361.074.655.221 1.018.366.221-.437 1.381-1.092 1.967-1.236-.51-.584-.657-1.02-.657-4.586v-6.474c0-1.817.292-3.2.802-3.858-2.04-.944-2.548-1.31-2.548-6.11h-.508c0 4.509-.584 5.166-2.548 5.966.436.873.51 2.33.51 4.002v5.238c0 3.205-.437 3.713-1.82 3.713-1.53 0-2.112-.508-2.112-2.256v-14.915c0-4.074 0-5.018 1.165-5.018.437 0 1.02.437 1.02 1.091 0 .582-.07.947-.291 1.381-.216.508-.437 1.165-.437 1.89 0 1.31.947 2.036 1.822 1.892a1.957 1.957 0 0 1-.439-1.239c0-.508.44-.944 1.381-1.817.51-.581.873-1.162.873-2.038 0-1.018-.507-1.746-1.236-2.33l1.675-1.236-1.601-1.383c.8-.507 1.162-1.236 1.162-2.038 0-.728-.507-1.601-.873-1.964-.726-.726-1.018-1.165-1.018-1.601 0-.437.076-.802.295-1.163-.658-.076-1.894.8-1.894 1.962 0 .584.145 1.165.29 1.602.15.362.291.58.291 1.164 0 .437-.363 1.092-.87 1.092-.802 0-1.312-.292-1.312-3.492V89.262c0-2.91.728-3.71 1.964-3.71 1.383 0 1.965 1.09 1.965 3.636v4.44c0 2.4-.219 3.347-.729 4.001 2.039.873 2.546 1.965 2.546 5.967h.584c0-4.147.363-5.091 2.401-5.967-.439-.802-.51-2.038-.51-3.928v-6.984c0-2.11.218-3.13.657-3.495-.728-.071-1.675-.728-1.893-1.31-.508.366-1.236.729-1.744.729-.873 0-1.454-.292-2.038-.437-.582-.144-1.163-.292-2.038-.292-.508 0-1.018.074-1.673.292a7.791 7.791 0 0 1-2.62.437c-.581 0-1.236-.074-1.746-.219-.513-.144-.873-.291-1.168-.51-.51.729-1.31 1.239-2.254 1.31l.655 6.258h.584v-2.4c.071-.584.216-.802.579-.802.292 0 .363.218.363.801v15.06c0 3.348-.653 5.165-1.31 5.822.51.437.87 1.02.87 1.454 0 .51-.36 1.165-.87 1.454.51.726 1.31 2.472 1.31 7.203v13.97c0 .8-.147 1.09-.51 1.09s-.434-.29-.434-1.163v-2.327h-.655v.002zm-3.567-20.3c0-.435.072-1.166.947-1.673-.51-.658-1.091-1.822-1.091-5.751V89.046c0-4.147-3.054-7.131-7.64-7.131-1.31 0-2.11 0-2.912.147-.726.145-1.891.581-2.911.581-.729 0-2.112-.365-2.767-.802-.218.581-1.31 1.381-2.328 1.457l.658 5.893h.655V87.59c0-1.31.073-1.6.434-1.6.365 0 .439.145.439 1.31v14.842c0 3.492-.584 4.654-1.384 5.603.582.655.8 1.236.8 1.673 0 .51-.216 1.02-.8 1.53.508.652 1.384 2.183 1.384 5.456v15.788c0 1.018-.147 1.31-.584 1.31-.437 0-.581-.292-.581-1.31v-2.113h-.51l-.51 6.331c.728-.07 1.82.437 2.185 1.31.726-.584 1.38-.728 2.18-.728 1.02 0 1.891.144 2.985.365 1.09.218 2.328.363 4.003.363 2.764 0 7.204-1.38 7.204-8.66v-11.714c0-4.218.51-5.746 1.091-6.327-.802-.512-.947-1.238-.947-1.675zm-6.33-6.333c0 2.982-.655 4.147-1.163 4.949.655.581.871 1.165.871 1.673 0 .51-.29 1.09-1.091 1.456.657.508 1.38 1.965 1.38 5.091v14.626c0 2.91-.726 3.274-2.109 3.274-1.31 0-2.183-.363-2.183-3.274V116.11c0-2.982.363-4.22 1.165-5.017-1.02-.508-1.165-1.31-1.165-1.675 0-.437.292-1.165 1.236-1.455-.8-.728-1.236-1.82-1.236-4.875V89.191c0-2.764.51-4.002 2.183-4.002 1.82 0 2.11 1.238 2.11 4.002v13.821h.002z"/>
            <path d="M63.32 188.768c-.004.012-.009.022-.011.031.041-.01.085-.024.132-.031h-.12zm117.832-.476c-3.21-2.506-8.471-3.551-10.245-6.67 1.909-1.438 4.234-2.634 6.672-3.934 2.288-1.219 5.048-2.335 6.551-4.169 2.526-3.08 4.489-10.175.358-13.223-3.79-2.796-8.896.287-13.463.476.346-1.741.763-3.929.478-5.84-.125-.82-.686-1.596-.24-2.26.363.206.496.949 1.43.713 1.626-.407-.142-2.697.238-4.048.645 1.38 1.033 3.016 1.548 4.527.704-.427.436-1.256.596-1.906.34-1.385 1.052-2.675 1.071-4.169.05-3.798-2.06-6.79-3.338-9.41 2.232.224 1.788-3.163-.235-2.385-.672-1.592-.937-3.59-1.906-4.883.562-.11 1.52 1.41 2.026 2.146 1.364.542 2.04 1.77 3.336 2.381-.665-4.937-3.27-8.958-6.792-11.435 1.361-8.99-.643-17.92-2.264-24.894-1.305-5.616-3.907-11.02-6.316-15.486-2.016-3.74-4.836-6.805-6.671-10.246.54-1.256 1.918-.954 2.86-1.312 1.942-.733 3.284-2.676 3.098-5.24-.282-3.868-3.348-4.567-6.076-6.193-1.484-.885-2.602-2.173-3.931-2.501-2.365-.061-4.231.375-6.314.596.19-2.548-.16-5.028-1.788-5.957-.956-.542-2.146-.586-3.098-1.072-.728-.372-1.515-1.03-2.263-1.55-.785-.544-1.715-1.015-2.382-1.547-1.202-.956-2.038-2.222-3.218-3.097-3.905-2.896-8.55-5.496-15.13-5.599-.487-.03-.413-.62-.594-.954-.334-.309-1.386-.387-1.313-1.192.076-.816 1.742-.74 1.906-1.547.233-1.128-1.089-1.16-1.31-2.143-.179-.795.265-.935.358-2.264 1.901.319 4.133-.745 3.098-2.977 1.722-1.413 2.725-3.546 4.766-4.647 2.195.172 3.515-.535 3.336-2.74 1.694-.45 1.883-2.405 3.335-3.097-.16.709-.002 1.938.476 2.384a2.717 2.717 0 0 0 3.098-1.074c-.974-1.567.137-5.216-2.74-4.883-.046-1.447-1.5-2.04-2.86-1.785-.267.463.572.682.476 1.427-.098.765-.942.697-1.31 1.312-.446-2.56-3.568-.657-4.049.594-2.006-1.043-4.557.429-3.812 2.86-1.091.642-2.254 1.488-1.908 3.214.346.258.773-.414 1.43-.24.025.65.424.924.954 1.074-.696 2.565-4.483 1.385-3.338-1.668-1.476.302-2.124 1.962-4.05 1.43-.772-.645-.524-1.726 0-2.504 2.417 1.773 6.275-1.94 5.6-4.762-.152-.648-.723-1.06-1.55-1.195 1.903-.416 4.714-6.805.954-6.788-2.001.008-4.214 3.326-3.691 5.717-3.4-3.21-7.972 4.662-3.932 5.836-.75 1.992-2.193 3.289-4.883 3.338-.896-.508-1.33-1.942-.954-3.338-2.083.464-5.872 4.255-7.746 1.43-.523-.79-.525-2.457.358-2.621 1.096-.2 1.18 1.368 2.026 1.55 1.42.306 2.29-1.66 3.932-.476.475-.626.208-1.955-.118-2.502 2.904-.157 3.358-6.06.118-6.194-.236-.44.75-.758.954-1.548.37-1.434-.245-3.23-1.668-3.455-.55.326-.446 1.935-1.312 1.547-.611.098-.452-.578-.476-1.071-.145-.37-.562-.471-.596-.952.368-.625.942-1.042 1.55-1.43-.297-1.1-2.32-1.606-3.218-.713-.329-1.023-1.094-2.519-3.456-2.264-.993.106-2.389 1.025-2.381 2.74-.866-.633-3.003-1.177-3.694 0 1.555.573 1.008 2.187 1.31 3.693-1.526.015-2.174-.841-3.098-1.43-1.126 1.334-.022 3.799.358 4.647-3.34.606-3.476 6.138.238 6.195-.614.458-1.168 1.7-.596 2.619.73.26.927-.277 1.668-.238.753.04 1.434.728 2.143.716.991-.022 1.398-.988 2.384-.716.837 1.373-.311 2.928-1.432 3.097-2.774.415-4.305-3.264-6.79-2.86.057.69.56 2.52-.117 3.336-2.713.907-4.79-.62-5.48-2.501.494-.464 1.19-.15 1.668-.476 2.024-1.395-.865-6.994-2.977-7.028-.797-.013-.714.54-1.55.716-.506-2.1-1.317-4.885-3.456-5.003-3.439-.191-1.668 5.817.358 6.55-4.221 1.633 1.006 8.478 3.576 5.837.459.576.493 2.153.118 2.86-1.59.487-2.703-.45-3.574-1.07-.576.48-.91 1.898-1.908 2.26-1 .366-2.347.222-2.382-1.19.422-.467.979.2 1.548-.119.579-.421.414-1.922 1.67-1.31-.265-1.365-.954-2.304-2.264-2.62.265-2.725-3.036-4.785-4.527-2.86-.408-1.58-.866-3.107-2.98-2.977-.474.235.262 1.174-.238 1.55-.986-.459-.76-2.07-.238-2.862-1.91-.964-3.544.927-3.574 2.98-3.723.039-.795 3.78-1.908 5.836 2.136.606 2.936-1.356 2.622-3.215.934.113 1.256 1.44 2.026 2.146.436.397.966.623 1.547.833-.62 1.433.79 3.397 2.505 2.502 1.542 1.913 3.424 3.487 5.244 5.123-.04.726-.91 1.277-.837 2.143.133 1.54 2.13 2.004 3.812 1.908 1.386 1.611-1.258 2.21-1.19 3.215.074 1.11 1.874.924 2.5 1.788-.7.848-2.1.998-2.026 2.621-4.32 1.202-8.48 2.906-12.033 5.481-1.705 1.231-3.282 2.651-5.004 3.69-1.864 1.129-4.339 1.428-6.078 2.74-1.543 1.172-2.026 3.465-2.384 5.599-1.982-.187-4.226-1.447-6.91-.834-1.652.378-3.185 1.97-4.885 2.857-2.801 1.469-5.33 2.374-5.482 5.721-.208 4.677 3.213 6.641 7.863 6.67-4.172 5.253-8.155 10.86-11.199 17.63-3.738 8.316-6.394 19.464-5.361 31.209.13 1.466.787 3.465.596 4.527-.194 1.084-2.507 2.567-3.216 3.695-1.194 1.894-1.59 5.057-1.19 7.142 1.144-.253 2.277-1.53 3.219-2.384 0 .875-2.944 3.58.117 3.693.02.258-.422.054-.596.118-3.22 2.09-4.16 8.161-3.335 13.34.08.508.36 1.008.478 1.55.174.814-.093 2.11.831 2.384.604-1.415 1.254-3.843 1.788-5.36.812 1.051 1.276 2.456 1.904 3.69-.535.262-1.546.042-1.904.478-.284.903-.16 1.832.594 2.026.755.193 1.104-.562 1.43-.358-.444 1.635-1.104 3.784-.358 5.598-5.803 3.13-19.455-3.41-19.777 5.599-.066 1.85.376 3.779 1.072 5.12 2.939 5.665 10.505 7.689 15.607 11.2-1.935 2.86-6.012 4.248-9.053 6.433-3.09 2.219-4.587 7.908-.238 10.363.724 4.638 1.474 9.437 2.264 14.295 1.928 2.263 7.044 3.644 10.84 4.407 6.883 1.383 13.28 2.678 20.493 3.097 1.838 3.877 6.304 7.754 12.034 7.148 3.948-.419 6.803-3.381 7.983-6.55.432.044.795.157 1.075.356 2.04 4.049 3.06 9.071 5.479 13.105 1.082 1.8 2.673 3.634 4.172 5.24 1.935 2.078 4.275 4.37 7.626 4.766l1.974.007c4.952-.873 8.364-3.497 10.059-7.632 2.837-6.915-.464-14.726-3.574-19.415 3.24.147 6.9.1 10.245-.478h.238c-1.648 4.174-4.513 8.066-4.528 13.819-.02 7.45 4.592 12.77 11.653 13.811l1.45.005c1.003-.137 2.075-.468 2.74-.833 3.497-1.908 7.213-6.136 9.173-9.53 2.362-4.088 3.58-8.91 5.361-13.103 1.259-.449 2.848-.566 4.408-.716 1.337 1.84 2.744 3.61 4.886 4.645 3.102 1.118 6.904.895 9.531-.238 1.42-.61 2.919-2.102 3.932-3.098.446-.438 1.192-.875 1.43-1.189.586-.772.34-1.564 1.071-2.026.903-.568 3.31-.48 5.004-.713 1.923-.265 3.8-.375 5.244-.596 5.148-.79 9.07-1.646 13.345-2.501 1.116-.224 2.637-.376 3.454-.834 1.035-.581 1.469-2.315 1.668-3.573.61-3.833 1.035-7.485 1.31-11.914 1.925-1.128 3.666-2.602 3.931-5.123.272-2.572-1.403-4.963-2.978-6.194zm-5.6-24.3c1.203-1.015 3.462-2.862 5.242-2.977 1.651-.108 2.828.912 3.574 1.191 2.772 4.348.476 9.376-2.622 11.794-1.898 1.48-4.493 2.572-6.792 3.93-2.428 1.435-5.153 2.622-6.671 4.05-.692.647-1.472 1.603-1.548 2.739-.108 1.606.88 2.43 1.072 3.575-3.66.086-6.622-2.982-4.528-7.386 1.369-2.88 3.812-5.547 5.838-8.816 2.021-3.257 4.344-6.33 6.436-8.1zm-6.435-37.999c2.884 1.287 4.152 4.186 5.244 7.266-1.506-.995-2.428-2.577-4.052-3.455-1.32 1.655.61 3.884 1.074 5.836.376 1.59.402 3.235.954 4.527.756 1.778 2.622 3.794 2.858 6.195.162 1.64-.452 3.083-.596 4.883-.78-.807-1.025-2.151-1.55-3.218-1.212.52-.778 2.02-.834 3.576-3.755.385-.192 5.98-2.146 8.696-3.459.573-5.784-.952-8.102-1.906a13.372 13.372 0 0 0-4.17.476c1.673-3.608 6.083-4.48 10.484-5.36.147-.528.174-1.176.358-1.669-.16-.632-.717-.87-1.43-.953.23-.847.267-1.66.117-2.62-.963.464-1.442 1.418-2.384 1.908.515-2.989 1.553-5.483 3.456-7.388.775-.775 1.852-1.175 2.264-2.384.29-3.267-1.491-4.463-2.86-6.075.221-2.999 1.239-5.199 1.315-8.335zm-6.79 61.465c-1.596.508-3.163 1.047-4.645 1.668 1.114-1.705 2.57-3.066 3.692-4.763-.054 1.038-.211 2.717.954 3.095zm3.457-48.958c.605.346.282 1.626 1.192 1.667.38-1.324.998-2.925.596-4.647.863.925 1.766 1.81 2.264 3.098-.481-.454-1.22-.349-1.906-.118-.081.875.041 1.547.598 1.788.67.23.871-.63 1.31-.24.083.539-.199.274-.476.24 0 .99-.824 1.196-1.43 1.667-1.209.944-1.986 2.872-2.62 4.41-.684 1.66-1.405 3.602-1.309 5.716 1.297-.488 1.955-1.619 2.74-2.62.89 1.033-.908 1.565-.954 2.264-.076 1.133 1.555 1.342 2.026.238.264.052.046.589.117.834-5.653.579-9.732 2.737-11.913 6.79 1.705.385 3.319-.22 4.648-.596-.85.859-2.815 1.631-3.931 2.622-1.332-.304-3.214-.4-4.41-.476-.278.24-.278-.051 0-.117 4.108-4.152 7.282-9.24 10.247-14.535.895-2.835 2.37-5.091 3.21-7.985zm-16.039 47.08l2.043 3.15c.084.121.07.246-.032.361l-.282.331-.937-.802a8.397 8.397 0 0 1-1.523-1.701l-2.27-3.424c-.097-.16-.082-.302.031-.436l.564-.66c.123-.145.26-.18.424-.1l3.743 1.701c.675.314 1.305.731 1.911 1.251l.934.8-.282.328c-.098.118-.22.152-.35.088l-3.422-1.54a8.083 8.083 0 0 1-2.001-1.233l-.091.105a8.413 8.413 0 0 1 1.54 1.78zm-12.572 14.584c.36-.278.556-.493.598-.645.044-.187-.064-.479-.329-.878-.2-.304-.368-.476-.517-.53-.15-.054-.37-.01-.672.135l-1.158.522c-1.052.471-1.913.209-2.573-.79-.427-.644-.571-1.226-.422-1.743.13-.464.518-.944 1.163-1.413l.672 1.018c-.314.25-.498.44-.547.598-.074.206-.007.457.194.76.186.285.353.454.498.501.296.086.858-.213 2.119-.753.434-.174.826-.196 1.19-.069.397.133.782.484 1.162 1.06.459.694.625 1.287.498 1.795-.11.451-.523.934-1.204 1.454l-.672-1.022zm.407 1.194c-.63.39-1.251.657-1.852.79-.145.036-.255 0-.334-.12-.02-.03-.076-.204-.164-.525-.042-.17.012-.3.16-.4l.132-.057c.412-.159.876-.394 1.388-.706l.67 1.018zm-26.244-2.462c-4.18.637-7.3 1.805-9.65-1.074-1.412-1.73-2.918-5.263-.954-7.625.94 1.008 1.72 2.173 2.98 2.86 3.302.267 5.808-1.187 6.672-3.456.993-2.6-.437-5.228-1.668-6.908-.64-.392-1.506-.559-1.906-1.192.415-1.704 2.742-1.638 4.17-2.143.5-.177.959-.576 1.43-.716 2.81-.829 5.793-1.209 8.58-2.143 1.317-.444 2.538-1.124 3.811-1.55 1.692-.567 3.086-1.278 4.645-1.668 1.89-1.481 3.87-2.222 5.482-3.69 6.915-6.313 5.752-19.766 6.076-32.641 3.62 2.337 10.71 1.373 11.317-3.097 2.474 1.81.762 7.648-.238 10.245-.88 2.291-2.313 4.395-3.454 6.313-1.226 2.057-2.67 3.798-4.29 5.48-2.143 2.227-4.113 4.229-4.17 8.339-.063 4.826 2.34 8.76 5.958 10.96-1.351 2.182-2.803 4.261-4.763 5.836-1.07-.282-1.697-1.003-2.622-1.428.376.932.793 1.827 1.072 2.857-1.479 2.254-3.843 3.622-5.837 5.359-1.055-4.31-3.817-8.473-8.695-8.934-2.919-.277-4.54 1.547-6.792 2.501-3.23 3.075-3.97 11.563-1.192 15.725-1.46.824-3.667 1.437-5.962 1.79zm.309 5.36c.007.035-.003.06-.01.086l-.96 7.416c-.01.145-.102.23-.262.26l-.498.086-.22-1.273c-.096-.566-.079-1.405.061-2.509l.5-3.837c.027-.182.128-.282.302-.317l.76-.132c.19-.032.295.044.327.22zm-6.309 1.18c-.015-.02-.032-.042-.037-.076-.03-.174.047-.282.23-.316l.764-.133c.174-.03.304.03.392.194l1.766 3.443c.518.993.82 1.773.917 2.34l.221 1.27-.508.088c-.161.03-.277-.024-.336-.157l-3.409-6.653zm.496 6.977c.024.199-.07.314-.278.338l-.701.084c-.206.024-.326-.069-.348-.268l-.827-7.045c-.024-.199.069-.314.277-.341l.702-.083c.21-.022.326.068.35.267l.825 7.048zm43.033-77.727c-1.016-.931-3.971.69-4.528-1.31-.437-4.286 8.187-2.167 6.316 1.55-.196.386-1.116 1.178-1.548 1.43-3.353 1.943-10.176-.11-8.697-5.12 1.37-4.647 9.75-3.095 12.747-.954 2.23 1.59 3.409 4.888 3.097 8.103-.328 3.384-2.09 5.417-3.218 8.575.278-4.787 3.986-10.817.12-14.412-.26-.24-.794-.363-1.074-.596-.794-.67-.93-.927-2.261-1.43-1.501-.566-4.118-.748-5.482.358-3.21 2.865 2.745 7.348 4.528 3.806zm.596 30.856c2.5 1.066.785 4.787-1.43 4.762-1.854-.017-3.608-2.143-3.336-4.287.471-3.693 6.642-4.931 9.89-2.859-.5 1.177-1.791 2.575-2.98 3.455-.082-2.08-3.022-2.977-4.052-1.192.203.43 1.209-.051 1.908.12zm-9.414 26.009a.542.542 0 0 1-.13.083 9.042 9.042 0 0 0-1.231.729l-.731-.93c.6-.429 1.165-.72 1.665-.86.148-.042.26-.013.339.09.037.047.11.214.201.483.059.17.025.3-.113.405zm-4.226 2.972c.03.192-.024.324-.15.41-.029.02-.13.056-.316.137a7.401 7.401 0 0 0-1.155.594l-.672-1.018c.714-.43 1.317-.69 1.825-.768.14-.022.235.013.304.12.02.03.022.057.032.094.056.144.095.287.132.431zm-5.543-5.275c1.072-3.207-2.146-6.677-3.216-7.982 2.583.988 4.675 3.244 5.36 5.834.093.35.184.961.12 1.312-.174.961-2.23 2.595-2.742 2.977-.611.456-1.369.854-2.144 1.31-.498.294-1.896 1.11-2.382 1.074-1.314-.108-2.418-2.641-2.028-4.527.243-1.16 1.545-2.494 2.86-2.504 1.754-.015 3.144 2.075 1.55 3.813-.557.113-1.614.248-2.144 0 1.06 2.453 4.283.138 4.766-1.307zM116.4 203.646c.052.194-.027.321-.23.375l-2.784.714-.3-1.158 2.787-.713c.204-.052.334.024.383.215l.144.567zm-4.623.532c.228-.194.569-.375 1.006-.522l1.913 7.462c-.442.079-.815.088-1.13.025a.357.357 0 0 1-.303-.285l-1.611-6.285c-.042-.147-.003-.277.125-.395zm2.396 3.634l-.294-1.145 2.568-.66c.204-.051.329.013.38.206l.145.57c.049.193-.027.32-.23.372l-2.569.657zm3.319 1.366c.203-.054.329.013.38.204l.147.569c.05.191-.027.321-.233.373l-2.784.716-.296-1.16 2.786-.702zm1.707-25.769c2.593-3.364 7.733-2.177 8.818 2.144-2.96-.976-5.607.875-5.958 3.455-.294 2.163.78 4.112 1.668 5.599-1.58.527-2.929 1.282-4.41 1.908-2.627-3.117-2.752-9.687-.118-13.106zm.383 18.329l.49-.201 1.27 2.126c.354.576.687 1.263 1.016 2.055l1.016 2.46c.073.184.017.321-.18.402l-.67.28c-.183.073-.32.014-.399-.167l-2.71-6.558c-.074-.181-.017-.319.167-.397zm3.25 3.2c-.572-.588-.991-1.113-1.271-1.57l-1.18-1.934c.461-.14.78-.108.964.083l2.338 2.46c.561.593.907 1.062 1.044 1.398l.143-.06c-.14-.335-.226-.909-.243-1.726l-.084-3.391c-.007-.262.194-.51.621-.738l.532 2.202c.123.52.199 1.19.209 2.008l.032 2.536c.007.137-.057.228-.2.287l-.789.324a.291.291 0 0 1-.343-.06l-1.774-1.819zm2.626-5.625l.486-.204c.196-.08.334-.022.41.162l2.71 6.557c.076.184.02.322-.177.403l-.672.277c-.196.078-.333.022-.41-.162l-1.017-2.46c-.326-.792-.574-1.515-.731-2.173l-.599-2.4zm3.326 3.906l-1.057-1.95c-.488-.895-.674-1.606-.55-2.143.123-.532.616-1.052 1.482-1.564l.581 1.074c-.493.294-.762.534-.804.704-.059.208.096.642.454 1.302l1.057 1.947c.33.606.569.947.733 1.03.211.115.596.04 1.136-.243l.584 1.072c-.643.319-1.168.485-1.55.49-.746.02-1.433-.554-2.066-1.719zm3.324-.002c.5-.285.77-.525.816-.711.042-.197-.107-.62-.466-1.283l-1.062-1.947c-.328-.61-.566-.947-.73-1.03-.207-.113-.59-.027-1.129.228l-.584-1.074c.893-.444 1.602-.562 2.13-.383.505.196.995.729 1.48 1.624l1.06 1.95c.332.607.528 1.115.572 1.517.064.564-.113 1.05-.518 1.457-.223.226-.544.468-.983.718l-.586-1.066zm6.902-5.935l-1.592-2.03c-.572-.731-.83-1.364-.795-1.91.03-.548.383-1.122 1.074-1.708l.739.942c-.601.547-.633.944-.11 1.606l1.525 1.95c.424.544.73.858.912.954.243.123.589.046 1.03-.223l.739.939c-.604.43-1.116.655-1.568.665-.664.027-1.32-.37-1.954-1.185zm3.041-.625c.123-.11.321-.312.601-.62.27-.285.451-.47.562-.557a.233.233 0 0 1 .294-.008l.434.287c.037.03.076.06.098.088.064.084.06.192-.024.332-.285.475-.69.941-1.227 1.422l-.738-.944zm1.06-2.887l-1.506-1.628c-.694-.748-1.053-1.393-1.065-1.94-.012-.55.336-1.177 1.05-1.886l.829.895c-.407.408-.608.707-.606.88-.007.217.253.602.76 1.151l1.509 1.628c.468.508.782.775.964.815.23.058.584-.11 1.04-.515l.829.895c-.54.468-1.008.76-1.379.86-.716.204-1.523-.184-2.425-1.155zm3.22-.824c.415-.397.616-.699.616-.887-.01-.199-.263-.574-.77-1.124l-1.509-1.625c-.468-.508-.782-.778-.964-.817-.23-.059-.579.118-1.042.498l-.827-.895c.756-.653 1.413-.942 1.967-.895.537.06 1.146.456 1.837 1.206l1.509 1.626c.468.505.785.952.927 1.33.204.529.15 1.044-.142 1.537-.16.274-.412.59-.773.939l-.829-.893zm.726-4.46l-3.171-1.433c-.037-.014-.062-.039-.089-.06-.152-.13-.161-.263-.046-.398l.498-.579c.113-.135.252-.17.422-.1l4.162 1.937c.439.208.92.53 1.45.978l.978.837-.28.33c-.1.116-.223.15-.353.087-.208-.099-1.398-.623-3.57-1.6zm6.532-3.522c-.525-.449-.918-.878-1.19-1.28l-2.55-3.82c-.104-.15-.091-.293.031-.435l.496-.579c.112-.134.24-.134.392-.004a.276.276 0 0 1 .071.078l1.916 2.904 2.134 3.276c.085.12.07.245-.037.37l-.282.329-.981-.839zm4.211-47.536c-.67-2.705-.181-6.572-2.026-8.1-1.82-1.138-4.167-2.81-7.15-3.1-3.39-.326-6.234.498-7.743 2.146-.21-2.283-.922-4.534-.24-6.552.6-1.769 2.462-2.833 3.573-3.93-.66-1.502-2.484-1.495-3.215-2.976-1.08-2.188.208-5.219-.118-7.862 1.087.267 1.528 1.258 2.502 1.787 2.96 1.607 7.966.91 10.84-.596 2.66-1.39 4.104-4.07 4.409-7.146 4.338 9.83 2.975 26.782-.832 36.33zm-7.267-49.316c1.793 4.049 4.952 7.933 2.857 12.983-.981-2.269-1.886-4.326-4.287-4.765-2.421-.442-6.223 1.92-7.508-.118-.623-.988-.415-4.135-.358-5.84.08-2.304.098-4.067.238-5.598.618-6.749 4.23-12.845 8.697-15.01.096-.047.258.039.358 0-3.613 4.76-2.381 12.963.003 18.348zm3.573 18.226c-1.734 1.267-5.467 3.036-8.817 1.787-2.254-.838-5.57-4.963-3.456-7.98 1.84-2.619 9.703-3.124 9.769 1.072.034 2.148-3.495 4.181-5.717 2.622-.434-.31-.989-1.4-.834-2.146.233-1.113 1.658-.814 2.264-1.43-1.786-.726-3.267.854-2.98 2.742.291 1.913 3.1 2.796 5.006 2.74 2.933-.087 5.827-3.194 6.433-5.597.297-1.18.206-2.494.12-3.338-.346-3.288-2.197-5.427-3.456-8.217 5.247 4.421 7.672 13.355 1.668 17.745zm-22.038-57.772c-3.269.88-5.59 4.505-4.292 8.455-2.928-.684-2.58-4.644-4.05-6.788.013.996 1.32 4.017-.478 4.647-2.205.773-2.197-3.141-2.381-5.002-.174-1.783-1.307-3.527-2.502-4.41-3.022-2.239-8.53-3.23-12.747-.596-3.662 2.291-6.495 5.256-5.837 11.08-.618.13-.842-.866-.952-1.43-.206-1.034.093-2.29-.12-3.573 1.756-6.226 6.436-9.365 13.7-10.005 8.86-.787 15.534 3.374 19.66 7.622zm-22.28 20.008c1.79.859 4.044-1.285 2.74-2.739-1.134-.18-.822 1.084-1.548 1.31-2.544-.229-1.42-4.044 0-4.525 4.14-1.405 5.528 7.548 1.43 8.335-4.876 1.133-7.41-5.689-5.48-9.767.861-1.82 3.927-4.329 6.792-3.573 3.603.951 4.633 5.108 6.075 8.22-.52-.235-1.27-1.268-1.667-2.026-1.568-1.68-3.95-4.436-6.912-3.573-2.926.851-4.256 5.834-1.43 8.338zM80.122 57.5c2.156-.675 5.249-.731 7.743-.599 1.092.059 2.716.189 3.574.599 2.364 1.115 2.992 4.858 2.502 7.98-.123.774-.074 1.718-.238 2.38-1.025 4.14-6.179 3.117-10.248 2.504 1.788-4.041.528-11.194-3.333-12.864zm.356 10.36c1.06-1.365.64-5.09-.479-6.432-.826-.99-3.053-1.645-4.645-1.192-2.477.709-4.464 2.69-5.48 5.003.324-2.028.71-3.34 1.668-4.647 1.492-2.03 7.052-4.449 9.887-1.072.609.721 1.565 2.42 1.786 3.691.515 2.913-.795 6.46-2.261 7.146-1.955.917-4.832-.321-5.6-2.146-.981-2.33.37-5.343 1.548-5.596 3.007-.652 3.91 3.26 2.62 4.762-1.396.314-2.848-.32-2.74-1.903-1.578 2.69 2.146 4.38 3.696 2.387zm-8.936-8.575c-1.974 2.435-2.244 6.572-4.051 9.171-1.09-.392-1.823-1.05-2.622-2.025-.58-.709-1.945-2.254-1.906-3.097.046-.999 2.16-2.043 3.336-2.62 1.76-.863 3.406-1.54 5.243-1.43zm11.913-13.579c2.421 1.42 5.669 4.795 5.838 8.098-1.065.042-1.263-1.224-1.668-1.785-.834-1.165-1.884-2.745-3.216-3.453-1.716-.917-6.413-1.097-8.459-.599-2.453.599-4.231 3.27-6.551 3.456-1.68-8.583 8.928-8.726 14.056-5.717zm8.936 8.456c-.383.569-.157 1.748-.476 2.381-.16.02-.444-.4-.476-.118-.248-1.748.449-4.252.358-6.432-.157-3.83-3.093-5.609-5.837-7.026-.645-.333-1.7-1.054-1.072-2.263 1.283-.091 1.601.78 2.502 1.074-1.19-1.948-4.018-2.259-5.006-4.407-.41-2.136 1.25-1.928 2.621-1.192 1.548.831 3.228 3.325 4.408 3.931-.51-1.766-2.86-2.288-2.261-4.765 2.396.304 3.595 1.805 5.003 3.097-.35-2.52-3.762-4.38-1.67-7.146.542.412.682 1.224 1.312 1.548-.243-1.408 1.337-5.69 2.504-5.719 1.006-.025 2.632 3.173 2.144 4.765.893-.02.927-.9 1.906-.834.99 3.463-2.102 6.408-1.072 9.53.709-.817.55-2.345 1.312-3.338.62-.807 2.065-1.893 3.098-.834-.211.981-1.04 1.342-1.55 2.026 1.859-.699 3.63-2.568 6.193-1.788-.09 2.33-1.768 3.078-2.978 4.29.574-.128.947-.373 1.43 0-.203 1.378-1.481 1.699-2.384 2.26-2.636 1.636-4.917 4.8-4.883 8.699.012 1.552.868 3.904-.24 4.882-.5-.73-.42-2.042-.597-3.097-.41 1.562-3.558 2.234-4.29.476zm14.297-16.318c.92.01 2.705.079 3.693.358 1.085.304 2.522.768 2.743 1.668-2.08.824-4.442-.783-7.15-.476-.194-.515.593-.966.714-1.55zM95.133 62.5c.113-1.457 1.837-5.172 3.215-5.717 1.163-.458 2.978-.134 4.528-.24 1.874-.125 3.829.034 4.883.598-.38 3.277-3.029 3.718-2.62 8.1.165 1.759 1.755 3.819 1.43 4.765-.262.768-1.763.898-2.5.952-1.73.127-3.18-.18-4.767-.24-2.408-1.273-4.459-4.51-4.17-8.218zm5.359-9.765c.285-4.339 5.32-8.032 9.296-8.579 3.041-.416 6.424.768 8.221 2.384 1.092.981 1.948 2.82 1.668 4.645-.709-.223-1.46-.211-2.143-.476-1.327-.515-2.404-1.756-3.812-2.381-2.624-1.17-7.456-1.175-9.651.476-1.163.873-2.132 2.513-2.622 4.169-.089.296.098 1.03-.476 1.074-.788.066-.5-1-.481-1.312zm17.515 6.905c3.392.067 5.96 1.982 7.984 3.814-.724.755-1.288 2-2.147 2.854-.338.339-1.564 1.241-2.026 1.195-.767-.084-1.18-1.545-1.667-2.74-.663-1.626-1.85-3.661-2.144-5.123zm-5.124-21.678c-1.879-.223-3.27-.942-5.361-.952-.332-1.849-3.451-1.366-4.766-.716-.716-1.667-3-.98-4.052-.476.272-1.402.706-3.256.358-4.882-.056-.777-1.59-.079-1.548-.954 4.891-.61 12.19.189 16.561 1.67.05 1.045-.449 1.616-.358 2.62.069.772.716 1.304.594 1.905-.18.892-1.408.632-1.428 1.785zm1.908-7.742c-5.148-1.248-11.572-1.403-17.873-1.668.015-.527-.934-1.24-.475-1.43 5.665-.036 12.386.484 17.752 1.67 1.082.236 3.007.268 2.858 1.786-.8.598-1.533-.182-2.262-.358zm-45.63-2.86c-2.011-1.339-3.358-4-5.124-5.005-.385.086-1.533.5-1.786-.358-.053-.686.572-.696.597-1.31-.292-.811-.744-.411-1.43-.833-1.305-.797-2.14-2.926-3.216-2.977-1.866-.093-.618 2.217-1.312 3.335-.434-1.619-1.631-4.755 1.43-3.931-.331-1.72.37-2.906 1.547-3.453-.554 1.447.572 3.296 1.67 4.169.437-.554.567-1.418.597-2.384 1.957.37.87 2.93 2.146 3.335.934.3.797-1.003 1.785-1.071 1.448-.103 1.612 1.859 2.026 3.335.457.417 1.362.387 1.786.834-.24.515-.937.574-.714 1.55-1.128-.302-2.013 0-2.146.833-.42 2.646 4.92 3.358 5.6.716 1.224.412 3.063 1.065 3.931 0 1.04-1.277.184-4.043-.954-4.764-1.5 2.086-4.15-.457-4.05-2.86.295-.699 1.284-.701 1.907-1.074-.209-1.219-1.317-1.292-2.026-2.384-.594-.907-1.344-3.813.238-3.81 2.565.002 2.053 4.551 3.929 5.478 2.04-2.254 3.949 1.074 3.814 3.573-.383.728-1.74.486-2.502.834.366 3.659 4.086 5.903 7.746 4.171.306-.606.225-1.599.593-2.146 1.32.481 2.073 1.84 3.456 2.146 3.42.753 5.654-2.467 3.814-5.123-1.067-.588-1.883.422-2.74.476-1.086.069-2.025-.826-3.217-.593.108-.729.507-1.163 1.071-1.43-.188-1.31-1.255-.67-2.143-1.192-1.933-1.13-.618-4.225 1.668-4.287.407-1.579-1.092-1.91-.955-3.575.692.23 2.419 1.013 3.694.36-.287-1.302-.061-3.117-.716-4.05.917-.32 1.634.588 2.502.713.787-.51.28-1.334.714-2.026.662-1.052 2.494-1.013 3.215-.238.442.471.142 1.374.834 1.786.805-.162 1.386-.864 2.384-.476-.277.677-.94.966-1.072 1.788.057.522 1.045 1.081.834 2.263 1.013.785 2.463.82 2.742-.714 1.896 1.447-1.089 2.89-.836 3.929.164.665 1.084.43 1.67.834 1.833 1.275.596 4.33-1.55 4.765.138.537.461.887.356 1.667-1.023-.245-1.837.052-2.502.476-1.084-.39-1.266-1.413-2.62-1.31-1.4.108-1.913 1.553-1.788 2.86.209 2.153 2.725 3.298 4.884 2.857 1.356-.275 1.827-1.219 3.098-1.548 1.042 5.163 8.739 1.303 8.221-3.094-.309-.192-.92-.008-1.43-.24-1.148-2.424 2.014-5.325 3.692-3.098 2.038-1.417.964-5.947 4.527-5.837 1.524 2.877-2.087 4.307-2.977 6.313.218.453 1.665-.233 1.906.478.193 1.984-2.343 5.297-3.932 2.977-1.366.594-2.078 2.43-1.668 4.407 1.013 1.368 3.191.63 4.41 0 .024 4.505 5.781 2.072 5.717-.952-1.322.05-1.287-1.255-2.74-1.074.337-.858 1.45-.932 1.906-1.665-.836-2.111 1.371-2.943 2.86-2.025 1.163-.268 1.143-1.717 2.502-1.786.576.017.307.883.834.952 1.55-.236 2.455-1.121 2.74-2.622.488.385.63 1.118.951 1.67.535-.059.896.06 1.313.118 1.118.841.569 2.818.716 3.931-.427.054-.69.194-1.072 0-.447-.493-.177-1.466 0-2.026-.503-.772-1.567-.745-2.384-.12-.895.69-2.217 2.828-3.098 3.335.638 1.685-1.04 2.713-2.382 2.026-2.538 1.236-3.725 3.82-5.837 5.479-10.04-2.56-22.504-3.034-34.672-2.144-1.842.133-3.843.41-5.6.714-3.33.581-5.153 1.606-7.382.122zm3.098 3.456c-.8.15-1.796.605-2.502 0 .13-1.727 2.37-1.842 3.93-2.146 5.883-1.143 12.322-1.592 19.064-1.668.265.255-.821 1.143-1.074 1.668-5.977.147-13.493 1.032-19.418 2.146zm1.427 3.215c-.061-.692-.338-1.17-.476-1.786 4.734-1.738 11.028-1.917 17.155-2.263.23.512-.977 1.167-1.19 2.263-.167.864.11 1.737.118 2.502-1.07-.675-3.105-.383-3.336.831-1.422-.67-4.663-1.71-4.407 1.192-2.31.267-4.722.441-6.792.954-.552-1.366-3.162-1.923-1.072-3.693zm7.15 3.813c.432-.037.868-.216 1.31-.118.07.444.549.484.596.952-3.18.04-6.171.9-9.056.834 1.22-1.558 4.636-1.46 7.15-1.668zm-10.961 3.809c4.65-1.629 9.396-1.722 13.82.716 3.825 2.106 7.008 5.135 7.15 10.721.02.817.067 2.428-.596 2.857-.549-.718-.103-1.155-.12-1.905-.162-6.877-9.624-13.508-17.87-10.364-1.685.643-3.633 1.837-4.17 3.814-.267.97 0 2.037-.12 3.097-.118 1.032-.532 2.42-1.668 3.928-2.163-.438-2.055-3.94-.954-5.478-1.98 1.194-1.13 5.221-2.978 6.55.29-3.112-.304-6.756-2.977-7.624 1.95-3.22 6.286-4.841 10.483-6.312zm-36.458 27.4c.108-1.214-1.202-1.396-.834-2.502 2.747-1.82 4.413 3.269 1.788 3.813-2.396.493-4.626-2.13-4.527-4.409.142-3.288 3.617-4.098 6.195-5.596 1.158-.672 3.103-2.295 4.052-2.501.868-.192 3.113.169 4.29.475 1.062.277 1.575.854 2.62.118.627-1.238.274-3.404 1.074-4.645.556-.865 2.88-1.577 4.645-2.38 1.935-.884 3.28-1.919 4.648-2.385 3.29-1.12 5.327 4.182 3.333 7.147-2.779.855-4.135-3.267-2.381-4.527 1.479.206 1.768 2.13 1.31 3.573.968-.108.816-1.474.716-2.144-.157-1.06-.972-2.226-1.788-2.263-1.734-.079-2.156 2.724-2.026 4.407.262 3.372 2.448 6.096 4.29 8.693 1.952 2.764 4.243 5.047 6.075 6.91.76-.046.849.584 1.55.597.787-.712 1.123-1.695 1.788-2.86.43-.753 1.197-2.386 2.264-2.263 1.006.117 1.226 2.236 1.906 3.097 2.07 2.631 6.465 3.291 10.961 2.98.478 1.255.442 2.999.834 4.524.098.375.108 1.194.716 1.072.267-1.467-.615-3.826-.954-5.479 3.797-.61 7.883-.932 8.935-4.289 1.815 1.03 2.848 3.5 5.362 3.931 1.619.277 3.179-.088 4.883.358-.39 1.95-.868 3.819-1.192 5.837 1.087-.096 1.013-1.626 1.192-2.62.194-1.056.552-2.238.358-3.097 5.733-.105 11.523-.154 11.44-6.074 1.283-.132 1.697 1.15 2.62 1.668.468.262 1.704.757 2.263.716.957-.074 2.92-2.046 3.812-2.857 2.492-2.271 3.954-4.692 5.364-7.983.782-1.831 2.507-5.405.356-6.074-1.053.258-1.68.94-1.788 2.143.395.035.515-1.23 1.55-.954.841 1.27-.221 3.01-2.026 2.74-1.229-1.472-.383-3.954.358-4.765.544-.596 2.418-1.67 4.29-1.074.836.267 2.11 1.395 3.456 2.263 2.222 1.432 4.947 2.063 5.479 4.645.253 1.221-.248 2.793-.476 3.813 1.472-.583 3.9-1.44 5.838-1.43 1.859.01 2.29 1.146 3.576 1.906 1.547.917 3.242 1.363 4.645 2.026.324.924 1.4 1.145 1.906 2.263 1.01 2.227-.446 5.555-2.261 5.716-.928.081-1.622-.598-2.505-.833-2.016-2.288 2.811-6.121 2.505-1.788 1.707-1.442 1.216-4.517-2.026-4.049-1.56.226-3.733 1.204-5.242 2.264-1.341.941-3.107 2.197-4.05 3.335-.485.588-.875 1.604-1.43 2.381-.546.768-1.21 1.464-1.55 2.146-1.731 3.467-1.503 8.039-2.501 11.793-.353 4.905-.037 11.717-.358 17.274-7.977 3.063-15.759 6.317-23.71 9.41 0 .512.276.755.237 1.31 7.866-3.294 15.607-6.713 23.47-10.009.194 2.906.047 5.425.12 8.458-9.457 1.874-9.975 1.867-23.472 4.407.522.351 1.109.64 1.55 1.074a1086.272 1086.272 0 0 1 21.923-4.647c-.106 2.82.122 5.25-.12 7.862-6.82-.25-14.055-.083-20.849-.358-.292.344-.267 1.006-.596 1.31 7.223-.044 14.304-.23 21.565-.238-.035 2.855-.04 5.015 0 7.862-7.229-1.589-14.56-3.073-21.805-4.645v1.19c7.12 1.653 14.834 2.717 22.04 4.289-.461 2.656-.36 5.63-.118 8.458-7.402-3.004-14.542-6.27-21.922-9.292v1.192c7.176 3.149 14.721 5.927 22.04 8.934.071 3.526-.074 6.837-.238 10.128-7.17-4.704-14.054-9.694-21.206-14.415-.856 1.317 1.054 2.082 2.264 2.86 6.205 3.985 13.173 8.463 18.942 12.389-.069 7.3-1.27 13.06-5.244 16.438-.535.453-1.258.77-1.785 1.19-.56.445-1.05.89-1.55 1.429-.749.044-1.082.505-1.668.716-4.369-6.67-8.622-13.461-13.105-20.014-.594 1.254.466 2.31 1.312 3.576 3.686 5.505 8.086 11.254 11.437 16.796-3.284 1.322-6.816 2.396-10.365 3.453-1.03-1.39-1.315-3.532-2.264-5.003-.56.674.235 1.67.596 2.501.39.903.792 1.82 1.072 2.62-3.719.887-7.05 1.439-10.366 2.739-.291-.94-.392-2.114-.598-3.218-.191-1.027-.204-2.325-.952-2.86-.169 1.585.893 4.145 1.072 6.316-4.263 1.216-7.719 3.242-9.176 7.266 2.06-1.167 3.8-3.431 6.912-3.097 3.16.34 5.843 3.862 4.05 7.504-1.653 1.162-4.557 1.23-5.72-.358-2.458-3.36 3.713-6.009 3.098-1.43-.599.47-1.084-.576-1.548-.238-.711 2.298 2.713 2.305 2.86-.24.125-2.193-1.903-3.71-4.17-3.453-3.046.348-6.548 6.101-5.6 10.005.462 1.906 1.593 3.44 3.216 4.407-2.195.527-3.71-.655-4.886-1.545a15.436 15.436 0 0 1-1.19-5.005c-.092-1.484.474-3.43-.595-4.29-1.207 1.389-.37 4.052-.954 5.958-.76 2.481-2.816 3.695-5.004 4.882 2.904-2.962 2.757-10.07.118-13.22-.591-.71-1.896-1.724-2.74-1.788-2.249-.172-5.48 3.178-2.977 5.36.25-1.836.574-4.394 2.977-2.859.577 1.668.344 3.998-.954 4.527-1.464.599-3.704-.807-4.287-1.905-.665-1.26-.346-3.755.358-4.765.554-.8 3.132-2.03 4.645-1.908 2.76.228 3.775 2.85 5.72 4.051-.728-3.242-3.39-5.586-6.078-7.266.287-2.34 1.47-5.03 1.192-7.146-.596.79-.726 2.241-.954 3.453a71.708 71.708 0 0 0-.596 3.693c-3.323-1.162-7.123-1.851-10.723-2.74.603-1.463 1.363-2.765 1.788-4.406-.839.255-.998 1.359-1.31 2.143-.319.802-.6 1.675-.954 2.384-5.23-1.837-11.275-2.818-15.369-5.957-.262-.203-.758-.483-.716-.951-1.64-.618-3.024-2.433-4.05-4.049.739-.9 1.634-1.695 2.502-2.504 5.038-4.681 10.03-9.826 15.131-14.65.682-.647 2.087-1.582 1.548-2.857-6.497 6.09-12.862 13.346-19.539 19.655-1.17-1.724-1.807-3.565-2.026-5.956-.127-1.423-1.253-3.64-.713-5.837 7.647-4.939 15.285-9.89 22.874-14.89-.174-.302-.422-.533-.478-.954-7.5 5.007-14.876 10.142-22.279 15.248-.287-3.695-.198-7.033-.24-10.96 7.554-2.932 14.94-6.03 22.519-8.933-.04-.476.213-.662.12-1.192-7.51 2.698-14.972 6.472-22.639 9.41-.069-3.416.115-5.842.12-9.172 7.13-1.25 14.785-2.776 22.16-4.169.822-.157 2.47-.024 2.144-1.547-7.812 1.4-16.56 3.536-24.304 5.002.098-2.758.29-5.427.238-8.335 8.133-.032 16.012.191 24.069.238v-1.31c-7.866.236-16.024.18-23.949.358.005-2.567.05-5.41 0-8.338 8.004 1.607 15.867 3.355 23.829 5.003.27-.167.044-.829.117-1.192-7.848-1.643-15.967-3.014-23.948-4.53-.066-3.342.191-5.635.12-8.933 7.748 2.933 15.641 6.756 23.588 9.89-.42-2.283-4.341-2.923-6.551-3.813-5.485-2.202-11.778-4.892-16.92-6.788.008-3.622-.203-7.024-.117-10.722.466-.13.969.363 1.31.596 6.887 4.684 14.177 9.886 21.206 14.533.635-1.464-1.4-2.305-2.62-3.095C63.6 100.1 56.435 95.52 50.212 91.452c-.17-7.335-.466-13.94-4.17-19.06-1.349-1.863-3.183-3.276-5.003-4.647-1.962-1.476-4.126-2.751-6.674-2.977-1.555-.142-2.914.189-3.098 1.43-.238 1.64.976 2.354 2.151 2.854zm64.455 130.794c-2.202 1.109-6.678 1.047-9.293.358 1.756-1.143 3.625-2.172 4.525-4.171.582.275.52.86.834 1.312.859 1.233 2.411 1.913 3.934 2.501zm-11.719 12.936c-.022.177-.125.245-.323.221l-.77-.098c-.175-.022-.28-.12-.32-.277l-.691-2.737c-.24.027-.623.064-1.14.125l.151-1.209 1.455-.181c.267-.05.444-.148.547-.31.073-.12.127-.34.167-.666.061-.5.066-.817.024-.945-.076-.235-.353-.385-.807-.443l-1.047-.133.152-1.187 1.035.133c.827.105 1.393.375 1.68.826.265.412.353 1.037.248 1.876-.061.5-.157.878-.297 1.13-.186.344-.488.59-.898.736.56 2.053.84 3.093.834 3.14zm-14.5-9.184c-.204-.054-.277-.186-.226-.377l.167-.599c.051-.193.184-.267.387-.21l4.285 1.186c.204.054.278.187.224.378l-.167.598c-.052.194-.182.265-.385.209l-1.494-.41-1.643 5.945c-.054.193-.184.267-.388.208l-.677-.189c-.203-.056-.28-.184-.225-.377l1.643-5.945-1.501-.417zm4.888.7c.03-.15.123-.253.29-.302.289-.074.674-.094 1.13-.037l-1.518 7.555c-.432-.122-.773-.274-1.03-.468a.363.363 0 0 1-.15-.39l1.278-6.359zm.446 6.105l2.816.58c.209.04.295.154.253.35l-.115.576c-.04.196-.165.277-.37.236l-2.819-.567.235-1.175zm3.02-1.569l-2.6-.522.233-1.163 2.6.525c.208.04.292.152.252.348l-.115.579c-.04.194-.164.275-.37.233zm-1.972-3.64l.235-1.171 2.816.566c.206.042.292.167.25.363l-.115.576c-.04.196-.164.277-.37.236l-2.816-.57zm3.787.16c.044-.35.512-.503 1.403-.449l-.927 7.343c-.025.198-.145.289-.354.264l-.708-.09c-.199-.025-.287-.145-.263-.344l.849-6.724zm-12.543-8.367c2.312-3.71 4.105-10.837 1.55-15.008-1.18-1.923-3.562-3.765-6.434-3.814-2.639-.044-4.069 1.207-5.957 2.144-1.656 2.474-2.92 5.343-3.694 8.695-.312.221-.616-.299-.834-.475-2.127-1.724-4.56-3.914-6.434-5.957.42-1.486 1.288-2.523 2.144-3.573-1.008.777-2.281 1.292-3.571 1.788-1.891-1.607-3.824-3.799-5.004-5.72 3.297-1.686 6.056-5.416 6.91-9.288 1.285-5.83-4.312-9.611-7.15-12.986-1.52-1.807-2.813-4.681-3.694-7.146-1.13-3.168-1.616-8.497 0-11.553.572.861.505 1.783.954 2.502 2.178 3.494 7.94 2.724 10.127 0 .503 6.523-.39 13.277.356 19.535.405 3.377 1.442 6.528 2.742 9.172 1.636 3.332 4.896 4.74 7.864 7.03.41-.053.667.047.954.118 3.782 2.965 9.617 3.885 14.297 5.957h1.31c1.886 1.13 4.179 1.856 6.313 2.74-.54.916-1.533 1.152-2.264 2.145-2.377 3.225-.55 9.152 3.218 9.41 1.808.122 3.083-1.043 3.574-2.62 1.9 1.526 1.356 5.445.238 6.909-3.63 4.752-12.693 1.54-17.515-.005zm-30.03-5.314c-.306-.339-.517-.648-.632-.952a.356.356 0 0 1 .078-.41l4.66-4.938c.138-.145.285-.15.44-.005l.52.493c.144.134.15.284.012.429l-5.077 5.383zm2.866 1.41l-.437.463c-.137.142-.285.147-.437.003l-1.75-1.65.853-.906 1.749 1.65c.152.148.156.295.022.44zm-5.718-23.611a46.946 46.946 0 0 1-2.026-2.381c1.114-2.857 4.906-5.04 8.818-3.574 1.675 2.453-1.69 6.872-3.934 6.789-2.34-.084-1.102-3.007-.238-4.17-1.771.214-2.335 1.636-2.62 3.336zm-.615 7.558c.12-.093.255-.11.414-.042.268.133.574.368.883.704l-6.046 4.777c-.25-.37-.41-.709-.48-1.025a.359.359 0 0 1 .14-.395l5.089-4.02zm-3.915 12.81c-1.253-.377-3.159-1.13-4.883-1.429.225-1.005.775-1.687.716-2.98 1.295 1.565 2.656 3.063 4.167 4.41zm-.628-7.113l.93-.736.777.988c.356.449.7.657 1.038.616.245-.03.615-.246 1.12-.645l1.512-1.192c.505-.4.8-.69.88-.89.135-.304.03-.685-.316-1.123l-.83-1.05.94-.74.836 1.059c.574.723.805 1.398.675 2.006-.113.556-.542 1.133-1.278 1.714l-1.51 1.192c-.773.61-1.448.932-2.002.966-.672.04-1.308-.312-1.896-1.057l-.876-1.108zm3.466 3.33l4.763-4.402c.113-.103.248-.13.41-.074.277.11.6.322.937.633l-5.661 5.228c-.277-.35-.464-.674-.56-.985a.358.358 0 0 1 .11-.4zm6.325-3.61l1.95 2.111c.145.155.138.305-.007.442l-.432.395c-.147.135-.296.13-.439-.025l-1.947-2.109.875-.814zm-4.78 4.417l1.94 2.118c.145.157.147.3 0 .432l-.429.397c-.147.138-.297.13-.439-.024l-1.95-2.112.878-.811zm1.567-1.447l.871-.805 1.798 1.948c.145.156.147.296 0 .431l-.432.397c-.147.135-.296.128-.439-.027l-1.798-1.944zm5.747 7.433l3.34-4.135c.126-.152.275-.17.44-.037l.537.434c.164.135.179.282.056.44l-3.306 4.082c-.28.346-.383.623-.309.851.056.152.265.38.63.692l-.767.947c-.633-.542-1.02-1.052-1.15-1.504-.15-.556.021-1.14.53-1.77zm1.646 2.535c.38.295.647.45.81.474.225.017.475-.145.757-.49l3.304-4.086c.125-.155.275-.17.437-.037l.556.449c.155.127.172.277.047.429l-3.34 4.132c-.51.628-1.045.92-1.624.89-.471-.034-1.053-.306-1.712-.812l.765-.949zm1.955 2.745a.271.271 0 0 1 .105-.098l3.586-1.948.442-3.725a.517.517 0 0 1 .058-.13c.084-.125.2-.147.334-.056l.68.463c.147.098.213.23.19.366-.019.174-.095.686-.213 1.528-.093.703-.184 1.236-.274 1.598l-.842 1.241c-.284.192-.64.403-1.1.643l-1.804.946a.38.38 0 0 1-.404-.031l-.68-.459c-.144-.1-.164-.213-.078-.338zm4.15.689c.054-.518.118-.927.189-1.263l.84-1.244a16.36 16.36 0 0 1 1.384-.85c.739-.417 1.185-.682 1.34-.76.132-.067.267-.06.412.036l.679.461c.137.09.16.206.074.334a.489.489 0 0 1-.099.103l-3.296 1.79-.48 4.053a.328.328 0 0 1-.05.135c-.086.128-.199.15-.346.052l-.68-.461c-.134-.093-.195-.216-.178-.363l.21-2.023zm1.626 2.717l3.198-5.643c.076-.132.194-.199.368-.196.3.02.67.123 1.087.319l-3.804 6.702c-.368-.248-.645-.5-.83-.768a.358.358 0 0 1-.02-.414zm1.717.3l2.494 1.429c.187.105.23.24.133.412l-.29.51c-.1.174-.243.21-.426.108l-2.5-1.418.589-1.042zm1.052-1.857l.584-1.03 2.305 1.307c.184.105.228.24.13.412l-.287.51c-.098.174-.245.213-.426.108l-2.306-1.307zm1.567-2.764l.591-1.04 2.5 1.42c.184.103.223.248.125.42l-.29.51c-.098.171-.242.21-.426.107l-2.5-1.417zm1.519-5.23c-1.062-.697-1.815-1.49-2.622-2.144.686-4.873 1.84-9.28 6.791-9.886-1.999 1.09-4.427 3.78-4.29 7.505.052 1.405.545 2.837 1.548 3.097 1.65.429 2.642-.662 3.086-1.756-.888.243-.996 1.295-2.132.682-1.842-.993.44-3.59 1.074-3.691 4.354-.692 1.632 7.34-.358 7.624-.53.074-2.61-1.11-3.097-1.432zm2.033 14.044l2.887-6.48c.08-.183.22-.235.414-.152l.64.287c.194.086.248.224.165.405l-2.885 6.482c-.083.181-.22.235-.414.15l-.643-.288c-.191-.083-.243-.22-.164-.404zm2.35 1.086l2.455-6.653c.068-.19.203-.25.402-.177l.427.17-.31 1.885c-.102.65-.24 1.224-.414 1.695l-1.307 3.546c-.071.186-.206.248-.392.179l-.67-.25c-.196-.074-.26-.209-.191-.395zm3.303-4.718l.287-1.832.11.041c.322.118.501.349.562.682l.46 2.96c.146.99.193 2.02.12 3.095l-.283 1.783-.11-.042c-.319-.118-.498-.346-.562-.682l-.446-2.952c-.204-1.315-.253-2.335-.138-3.053zm-3.279-8.15c3.348-1.907 4.597-11.614-2.381-10.007 1.005-2.718 4.348-3.993 6.791-2.144 3.645 2.76 3.81 11.085.834 14.533a51.921 51.921 0 0 1-5.244-2.381zm5.148 13.18c.128-.778.28-1.435.481-1.975l1.239-3.355c.068-.188.2-.24.397-.166l.672.247c.199.074.265.197.196.385l-2.457 6.658c-.069.187-.204.25-.402.177l-.42-.154.294-1.818zm-32.55-62.616c-2.36-3.58-4.088-7.838-1.906-12.51 2.41-5.152 13.594-7.476 14.3-.237.186 1.918-.888 3.661-2.146 4.527-1.06.728-3.996 1.616-5.718.476-2.568-1.697-1.044-7.355 3.098-6.67.7.115 1.239.73 2.026 1.309.736 2.276-1.226 3.698-3.215 2.862-.275-.4-.437-.915-.358-1.668-1.34.456-.557 2.68.716 2.977 2.141.503 4.307-1.846 4.052-3.93-.16-1.293-1.001-1.651-1.788-2.622-3.451-.736-7.211.414-8.818 2.621-.748 1.025-1.506 2.612-1.668 3.931-.365 2.906.89 5.886 1.425 8.934zm3.334-75.404c-.02-.1.049-.11.12-.118 7.76 3.112 10.618 15.641 8.339 26.802-.576.26-1.153-.9-1.788-1.192-3.782-1.731-9.732 1.344-10.72 4.41-1.774-8.704 6.997-12.191 7.625-20.255.287-3.668-1.61-7.425-3.576-9.647zm1.074 10.842c.29-.984.2-2.112.238-3.218v-.358c2.269 3.99-.915 6.901-2.502 9.768-.267.48-.319 1.074-.596 1.547-1 1.7-2.438 3.06-3.098 4.765-.417 1.082-.382 2.264-1.072 3.335-.189 3.392.626 5.886 2.978 7.031 2.666 1.295 8.405 1.952 8.935-1.192.322-1.898-.94-3.107-2.86-2.619.498.69 1.688.402 1.788 1.665.17 2.129-3.372 2.605-5.003 1.55-.64-.414-1.445-2.06-1.075-3.335.246-.836 1.124-1.25 1.789-1.668 1.226-.77 2.259-1.81 4.527-1.191.44.12 2.276 1.31 2.62 1.667 2.136 2.234 1.66 6.23-.834 7.862-1.386.91-3.194.957-4.766.952-3.573-.01-5.47-1.226-8.221-3.333a4.646 4.646 0 0 0-.952-1.55c-2.669-9.954 6-14.51 8.104-21.678zm-9.887 20.01c.92 2.021 1.177 3.944 2.74 5.361 2.207 2.007 6.73 3.027 10.127 2.502 1.857-.287 3.309-1.369 5.003-1.43.525 1.884.523 6.45-.237 8.22-.695 1.607-2.345 1.533-3.814 2.264 1.775.863 4.123.907 4.527 3.335.19 1.12-.063 2.81 0 4.29.06 1.36.39 2.711-.358 3.452-1.307-.885-2.146-2.146-3.932-2.384-7.39-.978-11.976 4.14-12.984 9.53-4.454-8.946-4.54-25.193-1.072-35.14zm-2.98 47.174c3.06 5.476 6.617 10.456 10.723 14.89-1.182 1.553-2.144 1.437-4.407 1.548-.108-.135.228-1.18-.359-1.668-.414.09-.9-.36-1.19 0-.472-.402-.598-1.148-1.191-1.43 1.035.081 2.379.876 4.052.714-.756-1.587-1.943-2.744-2.978-4.049-2.188-1.349-5.803-1.268-7.387-3.217 1.962.878 2.519-2.666.24-2.264-.081-1.04.647-.596.593-1.667.883.706 1.573 1.606 2.622 2.14.778-.926-.38-1.682-.833-2.14-.015-1.01.473-1.857.115-2.857zm-8.457-.596c-.753 1.314-.437 3.698-1.908 4.289-.415-1.71-.991-4.91-.118-6.433.142-1.591.532-3.288 1.548-4.764.672-.976 3.485-2.531.954-3.215.088-1.764 1.871-2.882 1.074-4.763-.827 1.197-1.74 2.31-3.338 2.74.395-3.022 1.184-5.646 3.338-6.909.667 1.13.86 2.251 1.072 3.335.53 2.752.934 5.677 1.906 8.458 1.125 3.228 3.588 6.06 2.501 9.888-.296.496-.709-.85-1.192-.954.044.758-.25 1.177-.834 1.312-.034 1.8-.48 3.882 0 5.479 2.632 1.895 7.395 1.657 8.936 4.647-.736.233-2.225-.243-3.098.118.29 1.022.907 1.716 1.31 2.621-2.147-.365-3.133-2.896-5.242-3.693-1.46.606-2.379 1.753-4.29 1.905-.53-1.952-.07-4.57.596-6.076-1.307-2.43-2.256-5.214-3.215-7.985zm-2.029 44.313c1.88-.615 3.719-1.839 3.932-3.81.24-2.215-2.04-4.82-3.336-5.837-.937-.736-2.32-1.08-3.573-1.788-3.23-1.822-7.56-4.169-9.77-7.028-1.63-2.112-3.767-9.255 1.19-9.53.211-.01 1.057.078 1.55.238 3.253 1.064 6.058 4.328 8.818 6.908 1.322 1.236 2.511 2.698 3.694 4.171 1.233 1.54 2.526 3.032 3.456 4.29.927 1.253 2.173 3.048 2.74 4.289 2.891 6.31-3.253 10.545-10.604 9.054.272-.682 1.675-.233 1.903-.957zm5.004 25.968c-1.528-.319-2.85-.454-4.29-.954-1.638-.566-4.493-.709-5.362-1.903-.748-1.028-.883-3.838-1.192-5.363-.608-3.01-1.275-5.486-1.192-8.458 1.232-.221 4.256.166 6.316.24 3.571.125 7.832.736 10.724 1.905.79.32 2.114 1.001 2.621 1.55.945 1.02 1.352 4.373-.237 4.763-.552.137-1.492-.086-2.144-.358-1.486-.618-2.77-1.744-4.29-2.502-.331-.164-.743-.186-1.072-.358-.422-.218-.8-.679-1.31-.833-2.622-.788-5.783.076-7.03 1.547-.5.593-1.14 1.923-1.191 2.621-.096 1.305 1.116 4.209 1.906 4.645.476.263 1.83.576 2.86.12 2.146-.951 1.349-5.5-1.31-4.409.463-2.46 2.938-1.744 4.407-.834 1.55.962 2.843 2.914 4.528 4.29 1.751 1.434 4.05 2.62 7.268 2.263 3.556-.397 5.153-3.735 7.03-5.837.477 3.733.389 8.664 1.55 11.315-6.057-.024-12.978-2.275-18.59-3.45zm37.411 7.507c-1.564 1.77-4.02 2.668-6.791 2.974-5.502.61-9.193-4.017-10.724-7.504-1.01-2.303-1.417-5-1.667-7.624-.37-3.88-.16-9.008-1.786-11.911.984 6.224-1.165 12.803-7.03 13.458-1.081.123-2.867.123-4.049-.476-1.42-.716-2.943-2.783-4.17-3.93-1.221-1.146-3.276-2.948-5.123-2.86-1.71.086-3.025 1.405-3.098 2.977.498.709 1.788-.294 2.502.478.873 2.293-.604 3.671-2.502 2.62-.285-.158-1.045-.545-1.192-.717-1.018-1.184-.707-3.58.118-4.647.618-.797 3.281-2.153 4.765-2.143 1.511.007 2.863 1.069 3.692 1.55 1.317.755 2.251 1.123 3.335 1.787 1.109.677 1.891 2 4.052 1.428 3.017-.795 2.038-5.26.716-7.029-1.108-1.476-4.998-2.957-7.507-3.217-4.172-.43-7.893-.218-10.962-.596-1.427-.174-4.106-1.086-4.765-2.379-.687-1.351.098-2.874 1.312-3.337 2.293-.873 5.27.228 7.385.24 4.413.022 8.148-1.216 10.127-3.811 2.144.635 4.418.834 6.434 2.023.87.515 1.226 1.43 2.146 2.381.721.75 1.852 1.477 2.86 2.266.986.775 1.835 1.737 2.62 2.384.647.53 1.64.782 2.384 1.427 1.74 1.51 2.39 3.044 2.501 5.84.199 5.093-.257 10.164 2.026 14.054.358.608.927 1.152 1.43 1.787 1.099 1.386 3.542 2.766 6.672 2.264.777-.125 2.212-.775 2.74-1.31 2.32-2.366.308-9.787-3.932-7.744.21.875 1.51.87 1.55 2.146.1 3.283-6.193 2.408-5.48-1.788.304-1.79 3.177-3.745 6.076-3.218 4.645.856 6.938 8.073 3.335 12.157zm-9.887-2.86c2.637-.23 4.933.434 8.102.238-.898 2.48-7.45 2.278-8.102-.238zm24.898 18.702c-2.004-2.063-4.196-4.245-5.72-7.031-.863-1.582-1.533-3.426-2.261-5.12-.736-1.708-1.626-3.373-1.906-5.121 2.411-.01 5.507.28 7.864.716.93 5.738.439 12.902 2.857 17.151-.412.206-.625-.382-.834-.595zm10.127 1.31c-1.162 1.103-3.173 1.88-5.361 1.311-3.37-.878-5.367-9.39-5.122-14.653.064-1.405.324-2.847.476-4.171 2.22.459 4.322 1.062 6.434 1.788 2.435.838 5.857 1.758 6.789 4.169 1.356 3.494-1.354 9.787-3.216 11.555zm5.838-17.63c1.217 2.981 2.497 5.88 1.548 9.411-1.138-1.363-2.019-2.987-3.098-4.406-3.11-2.845-8.442-4.91-13.939-5.722-4.285-.63-8.786-.914-12.867-2.025.456-4.29-1.423-8.485-4.648-9.648-2.904-1.052-7.103.282-8.101 2.62-.824 1.927.29 4.217.358 5.838-.432.066-.989-.355-1.31 0-2.82-3.42-2.463-10.577-2.384-16.202 3.674 1.856 7.17 4.468 11.081 6.312.785.37 1.673.562 2.505.954 3.188 1.5 7.355 3.217 11.196 4.29 4.398 1.225 8.315 2.027 13.225 2.74 1.102.16 2.392.17 3.336.594 1.386.626 2.46 3.684 3.098 5.243zm-1.717-12.522l-.432 1.268c-.068.184-.203.272-.402.26l-.68-.04c-.198-.01-.301-.108-.291-.284.002-.034.005-.071.017-.106l2.222-6.032c.174.056.3.122.356.196.095.132.198.41.294.824l.115.503-.807 2.28 1.347.074.265 1.165-2.004-.108zm3.699 1.778l-.68-.04c-.198-.01-.323-.11-.37-.301l-1.241-5.412c-.103-.476-.226-.797-.358-.972-.098-.134-.27-.225-.5-.287.098-.299.203-.505.294-.618.162-.19.38-.284.672-.267.434.025.701.275.817.75l1.672 6.786c.01.037.02.059.02.093-.02.19-.128.277-.326.268zm3.372-6.58c-.81.056-1.079.346-1.086 1.19l-.015 2.474c-.005.691.04 1.125.12 1.314.115.248.432.4.947.464l-.007 1.194c-.741-.04-1.278-.184-1.639-.454-.537-.39-.802-1.108-.797-2.138l.017-2.58c.008-.927.196-1.584.564-1.991.366-.407 1.001-.638 1.904-.667l-.008 1.194zm2.134 6.29c-.517.196-1.128.31-1.844.351l.007-1.194c.164-.01.446-.044.856-.113.388-.054.645-.09.787-.088.116 0 .199.058.23.176l.165.493c.01.044.022.096.022.128 0 .105-.073.188-.223.247zm.108-6.334c-.061.164-.167.245-.343.243a.604.604 0 0 1-.152-.013c-.481-.107-.95-.169-1.418-.193l.005-1.19c.738.042 1.361.165 1.84.366.142.059.21.154.21.284.003.057-.046.236-.142.503zm.628.09c-.211.015-.324-.083-.339-.281l-.041-.62c-.012-.2.083-.315.294-.327l4.435-.311c.21-.013.323.085.338.282l.044.62c.013.199-.086.312-.297.326l-1.545.108.432 6.153c.012.199-.083.311-.294.326l-.702.05c-.21.014-.324-.084-.338-.283l-.432-6.155-1.555.113zm6.669 36.099c-.76-.292-1.955-1.33-2.502-2.026-1.67-2.138-3.429-7.283-2.62-10.721.21-.893 1.453-2.156 2.502-2.742 3.194-1.778 7.359-2.776 11.44-3.57h.238c-.24 4.075-.26 7.3-.954 11.077-.75 4.08-2.62 10.071-8.104 7.982zm7.743-1.788c1.98-4.215 1.74-11.683 2.74-17.272 2.269-.99 5.202-1.314 8.221-1.55-2.433 7.495-5.496 14.361-10.96 18.822zm-12.391-13.34c-1.045.747-2.303 1.88-3.098 2.861-.635.785-1.062 2.19-1.906 2.62-.588-6.33 2.458-11.029 4.766-15.25 6.593-.227 12.31-1.49 17.87-2.859 5.561-1.37 9.87-3.99 14.656-6.194a50.166 50.166 0 0 0 4.527-2.384c1.538-.912 2.951-1.962 4.41-2.621.138.02.209-.027.238-.118-1.38 4.988 3.015 11.688-.596 15.366-.949.162-2.207.246-3.097.12.134-1.204.905-2.236 1.071-3.573.454-3.575-1.66-6.802-5.479-6.194-1.096.176-2.426 1.084-3.218 1.788-2.3 2.042-2.644 6.018-1.906 9.291-10.085 1.447-21.505 2.342-28.238 7.147zm39.913-6.911c-.476 2.241-4.83 1.994-6.078.598 1.617-.534 4.214-.706 6.078-.598zm36.458-7.384c-7.766 2.6-17.027 3.494-26.213 4.407.302-1.805.314-3.895.476-5.837 3.743 1.957 8.953 2.085 12.51.12 1.581-.875 2.977-2.467 4.407-3.573 1.376-1.066 3.083-2.85 5.12-1.787-2.143.603-4.102 2.847-3.097 5.24.199.469.574.756.954 1.19 3.027.632 4.8-.989 6.078-2.502 1.604-5.92-2.688-9.912-8.221-7.744-2.674 1.05-4.462 4.228-7.744 3.813-1.15-.147-1.861-1.079-2.501-1.55-1.011-4.078 2.879-6.442 6.67-6.67 1.421-.086 2.775.395 4.29.593 3.182.425 6.574.356 9.056.834.228 4.974-.377 9.778-1.785 13.466zm4.883-17.63c-1.091 2.023-3.873 2.401-6.91 2.026-.438-.054-.796-.324-1.189-.358-.302-.025-1.6.323-2.264.238-.417-.052-.765-.385-1.192-.476-2.082-.451-5.258-.765-7.505-.12-.947.272-2.522 1.336-3.098 1.787-.898.7-2.99 2.649-3.098 4.525-.21 3.647 2.865 5.709 6.554 4.885 2.622-.586 3.343-2.678 4.883-3.575.807-.469 2.64-1.312 4.768-.952 1.058.179 2.875 1.481 3.336 2.499 1.352 3.006-.179 6.148-4.052 6.077-2.918-1.668 1.371-6.374 2.622-2.86.753-2.376-.527-4.924-3.576-4.406-1.46.247-2.803 1.876-4.17 2.98-.902.727-1.974 1.441-2.977 2.26-1.217.993-2.637 1.947-4.287 2.146-2.458.29-5.993-.238-7.506-2.028-1.091-1.29-1.4-3.546-1.668-5.599-.076-.576.074-1.422-.476-1.905-1.204 1.221-.252 3.727-.117 5.719.402 5.951-.726 11.155-3.814 14.414-.528.304-1.153.515-1.43 1.072-.989-.047-1.597.665-2.264.956-7.54 3.267-15.678-2.928-12.509-11.2.883-1.973 2.237-3.482 5.244-3.332 1.452.608 3.498 2.44 3.336 4.765-.057.794-.474 1.255-.717 2.025-2.217 2.019-6.323-.527-4.29-3.693-1.591.128-2.258 2.487-2.263 3.814-.012 3.269 3.286 6.734 7.15 6.074 1.282-.218 3.014-1.619 3.813-2.622 1.389-1.74 2.27-4.068 2.024-7.146-.189-2.361-1.182-4.546-1.19-6.908-.004-1.295.089-3.065.476-4.171.775-2.193 3.206-2.963 4.646-4.17.748-.622 1.128-1.583 1.788-2.142.365-.314 1.175-.165.954-.954.382-.074.162.429.476.12 1.155-.966 2.09-2.318 3.338-3.215.721-.52 1.727-.653 2.144-1.55 2.114-.562 4.395-1.947 7.505-1.665 3.252.292 6.7 1.88 10.365 1.785 1.325-.034 2.752-.498 4.05-.358 1.604.172 3.345 1.33 3.573 2.501.204 1.074-.38 2.55-.483 2.737z"/>
        </g>
    </g>
</svg>
