<svg xmlns="http://www.w3.org/2000/svg" xmlns:xlink="http://www.w3.org/1999/xlink" width="227" height="32" viewBox="0 0 227 32"><defs><path id="a" d="M0 31.321h226.924v-31.321h-226.924z"/></defs><g fill="none"><path fill="#FEFEFE" d="M47.474 15.96c-1.548-.365-2.557-.814-3.163-1.602l6.004-3.589c.29.193.606.326.853.397l3.986.887-7.68 3.907zm-14.922 8.425v.594l3.872-1.807.016-.005-.366.99-3.522 1.643v.897l6.078-2.59v-2.814l-6.078 3.092zm6.078.963v-1.105l-6.078 2.588v.867zm-10.638 1.356l-6.078 3.092v.146l6.078-2.835zm10.186-17.99h-4.217l-1.409 1.302v3.214zm-10.186 12.575l-6.078 4.224v.257l6.078-3.922zm10.638-8.301v-3.046l-6.078 4.879v2.392zm-10.638 9.746l-6.078 3.923v.223l6.078-3.633zm15.555-12.257v.538c-.004.28.002.539.014.787l5.966-3.85v-1.312c0-.127.025-.247.062-.362l-6.042 4.2zm24.097-5.015l2.172-3.531 1.168-1.9h-2.706l-9.085 5.431h8.45zm-39.652 24.796l-2.349.908h2.349zm0-2.33l-6.078 2.836v.402h.145l5.933-2.527zm0-2.058v-1.756l-6.078 3.633v1.214zm0 2.904l-5.616 2.392h1.202l4.414-1.706zm10.638-2.628l-6.078 2.35v1.64l6.078-1.89zm55.427-1.312v-2.544l-6.078 1.236v5.266l6.078-.818v-2.636l-2.814.475.334-.56 2.48-.418zm-55.427-8.964l-6.078 3.922v.729l6.078-3.634zm-16.716 8.737l6.078-4.225v-1.9l-6.078 4.879zm27.613-15.768l-5.89 3.8c.063.409.164.762.3 1.076l5.817-3.477a1.205 1.205 0 0 1-.227-.691v-.708zm-10.897 11.619v-2.704l-6.078 3.634v2.162zm-6.078-1.552l6.078-3.922v-1.09l-6.078 4.225zm-4.56-6.192l-6.078 6.021v.94l6.078-5.615zm4.56-7.832l4.566-4.851h-4.3l-.266.325zm0 1.599h.674l5.404-5.354v-1.096h-.83l-5.248 5.575zm3.643 0l2.435-2.25v-2.055l-4.347 4.306zm25.76 12.636c.958.33 1.752.572 2.05 1.242l5.99-1.862c-.247-1.902-1.022-2.854-2.514-3.502l-8.813 3.405 3.287.716z"/><mask id="b"><use xlink:href="#a"/></mask><path fill="#FEFEFE" d="M111.592 6.481h6.079v-6.45h-6.079zm-23.612 23.06v1.75h5.242l.835-.085v-2.482zm42.78-29.541h-6.078v6.36l3.44-.944c-.135.203-.263.41-.387.62l-3.053.838v1.686h-3.808v2.964l3.457-.825a.5.5 0 0 1 .118-.012c-.225.383-.443.769-.653 1.16l-2.922.697v1.426h3.808v9.886l6.078-.816v-3.893l-2.376.401.332-.559 2.044-.345v-4.674h7.271v-5.41h-7.271v-8.56zm-123.736 12.622h-.584l-3.894 14.938zm2.046 5.768l1.72-3.695.58-.212a.243.243 0 0 1-.012.167l-1.74 3.74h.32l2.94-5.768h-4.311l-1.96 5.768h2.463zm-1.29-5.768h-.627l-4.708 15.708zm35.767-3.052l13.725-9.539h-6.296l-7.429 5.964zm-26.011 3.052l-3.766 5.768h2.194l4.38-5.768zm2.964 0l-4.381 5.768h.744l4.711-5.768zm91.092-2.672l4.507-1.236h-4.507zm-83.6-4.01l-10.167 12.45h.73l3.945-4.497.07.296-3.684 4.2h.953l8.153-8.662v-3.787zm-21.914 24.223l-.655 1.003h.655zm21.914-19.711l-7.472 7.938h.684l6.787-6.724zm-21.914 17.147l-1.818 3.567h.085l1.734-2.874zm111.592-15.312v-3.49l-6.078 1.668v3.272zm-16.793 1.728c.687 0 1.243.556 1.243 1.243v.738l5.706-1.36v-.128a5.891 5.891 0 0 0-.711-2.815l-8.464 2.322h2.226zm-84.472-1.393l-3.481 5.768h.548l3.768-5.768zm16.147-3.908v1.133l1.226-1.133zm11.032-4.339l5.41-4.345h-.245c-3.51 0-4.925 1.177-5.165 4.344m-21.67 1.092l2.21-3.383.044.386-2.254 3.45v4.635l3.227-4.25.04.154-3.267 4.301v1.447l6.078-7.443v-4.608h-4.064l-2.014 3.338v1.973zm16.716 1.015v-2.08l-2.252 2.08zm-35.506 24.685l2.954-6.347v-4.872l-3.81 11.22zm18.79-29.113l1.145-1.898h-1.145zm-9.86 16.337l3.481-5.768h-1.82l-2.942 5.768zm41.332-12.928l5.322-3.434.017-.009c-.04.311-.067.624-.082.937l-3.883 2.506h2.984l9.085-5.43h-8.252l-7.814 5.43h2.624zm25.538 3.376h-5.086v2.902l5.086-1.966zm-22.629 3.469l-7.678 3.906 5.657 1.231 5.908-2.516.01.131-5.708 2.431 2.863.624 9.063-3.503a20.531 20.531 0 0 0-1.125-.302l-8.99-2.002zm25.917-3.717h-.268l-.232.215zm-3.288 2.43v-.448l-5.086 1.966v4.764l6.432-1.999 1.535-1.288h2.61l14.088-4.38a.487.487 0 0 1 .189-.02c-.095.38-.258.743-.377 1.118l-11.013 3.424c.4.206.677.619.677 1.1v1.17l7.564-2.074.403-.338h.83l10.073-2.763a5.912 5.912 0 0 0-4.94-2.662h-6.772l-2.717 2.264a5.905 5.905 0 0 0-4.653-2.264h-3.715l-4.126 1.595-1.002.835zm63.13 11.251v9.019h6.078v-9.836zm-5.294 5.326h-.01l.343-.77.004-.012 1.236-.124v-.794h-5.651l-1.783-2.126-6.217.836v1.929l1.231 1.467 7.85-.79a.367.367 0 0 1 .066 0c-.18.252-.347.512-.468.79l-6.869.69 2.207 2.628h9.634v-3.881l-1.574.158zM146.062 6.408l-1.669.398c.153-.295.31-.587.473-.878l1.649-.393c-.156.289-.305.58-.453.873m12.312 2.182h-8.318l-1.924 1.603v-10.162h-6.078v16.707l3.2-.54a7.047 7.047 0 0 0-.271.55l-2.93.493v4.28l6.079-.818v-5.104l1.889-1.584h7.322c.686 0 1.243.556 1.243 1.243v4.04l3.028-.408-.026.046c-.149.256-.306.499-.406.763l-2.596.35v11.241h5.706v-16.782a5.918 5.918 0 0 0-5.918-5.918m-154.854-2.49l.302-2.057c.267-.155.537-.302.812-.442l-.003.057-.321 2.184-.211.114c-.182.09-.38.163-.58.238a.36.36 0 0 1 0-.093zm-3.52 10.884v11.62l1.865-16.974a.124.124 0 0 1 .247.027l-1.757 15.979 2.66-18.107c.268-.121.53-.253.786-.396a.366.366 0 0 1 .005.13l-3.216 21.903h.504l4.984-19.124v-11.887h-5.464l-.614 16.828zm111.592 13.206v.976h6.079v-1.586zm0-3.823v3.076l6.079-.611v-3.283zm-83.6-12.138l-6.078 5.615v1.926l6.078-4.88zm86.918 3.693l-1.813.368-.015.002c.207-.298.418-.594.632-.886l1.612-.328a.359.359 0 0 1 .073-.007l-.489.85zm-3.318-3.165v7.12l4.376-.739.056.002c-.146.182-.295.363-.413.562l-4.019.678v3.236l6.079-.817v-11.492l-6.079 1.45zm-47.462 8.213l5.954-1.633v-1.28l-.01-.545-5.943 1.847v1.61zm37.99 4.67v2.755l5.706-.573v-2.949zm-22.204 2.986l-4.942.664h4.942zm-15.785-7.142v1.026c0 .211-.057.408-.148.583l6.1-1.456v-1.786l-5.952 1.633zm9.707 1.903l6.078-1.235v-1.84l-6.078 1.45zm6.078-.223l-6.078 1.236v1.845l2.033-.343-.028.037c-.097.135-.266.329-.4.538l-1.605.271v1.944l6.078-.817v-4.71zm8.064-4.774v2.122l6.077-1.236v-2.337zm-17.901 6.774l-19.678 4.002h6.12l13.319-2.246c.142-.48.218-1.06.239-1.755m-.446 2.292l-10.129 1.71h5.435c2.581 0 4.03-.342 4.694-1.71m-33.505 1.709h2.393l.11-.026v-.66zm-3.548 0h1.672l4.378-1.201v-.68zm11.568 0h1.273l24.663-5.015v-1.493l-25.936 6.186zm0-1.342l16.964-4.047h-5.34l-11.624 3.189zm57.972-5.847v2.912l5.706-.767v-3.107zm-28.282-1.235l6.078-1.45v-2.138l-6.078 1.668zm0-4.401v1.966l6.078-1.667v-2.188zm14.142 1.029l6.077-1.45v-2.32l.575-.483-6.653 1.825zm14.14-2.354v2.62l3.768-.766c-.187.363-.356.734-.507 1.116l-3.26.663v2.825l5.705-.962v-6.857l-5.706 1.361zm-57.972 9.514l2.424-.753h-2.424zm0 1.04v.881l9.748-2.674h-3.98zm63.678 3l-5.706.573v.147h5.706zm69.297-11.233h2.578c.245 0 .437-.021.597-.053a.704.704 0 0 0 .362-.192.687.687 0 0 0 .181-.362c.032-.15.053-.34.053-.586v-2.812c0-.245-.021-.437-.053-.597a.767.767 0 0 0-.18-.373.703.703 0 0 0-.363-.191 3.001 3.001 0 0 0-.597-.053h-2.578v5.22zm2.728-6.285c.798 0 1.363.181 1.704.533.34.362.511.937.511 1.736v2.834c0 .394-.042.735-.117 1.022a1.672 1.672 0 0 1-.384.693c-.18.181-.404.32-.681.405a3.628 3.628 0 0 1-1.023.128h-3.91v-7.35h3.9zm3.407 7.351h1.13v-5.327h-1.13v5.327zm0-6.158h1.13v-1.193h-1.13v1.193zm5.834 2.397c0-.245-.043-.405-.138-.5-.096-.096-.266-.139-.511-.139h-1.14c-.245 0-.416.043-.512.138-.095.096-.138.256-.138.501v.66c0 .235.043.395.138.49.096.096.267.14.511.14h1.14c.246 0 .416-.044.512-.14.095-.095.138-.255.138-.49v-.66zm.565 5.518a1.099 1.099 0 0 1-.383.256 1.493 1.493 0 0 1-.533.074h-1.385c-.32 0-.618-.01-.884-.042a85.227 85.227 0 0 1-.8-.096v-.927l.224.01.405.033.533.021.64.01h1.235c.053 0 .117-.031.203-.084a1.975 1.975 0 0 0 .425-.426l.075-.16v-.203c0-.106-.064-.16-.192-.16h-2.556c-.405 0-.693-.074-.853-.213-.16-.138-.245-.362-.245-.692 0-.202.022-.351.075-.447a.778.778 0 0 1 .234-.266l.437-.32-.277-.213a1.032 1.032 0 0 1-.351-.448 1.85 1.85 0 0 1-.118-.703v-.522c0-.554.128-.97.384-1.235.255-.267.66-.395 1.214-.395h1.417l.618.011.575.021.458.022.267.02v.81h-.757c.085.054.182.128.288.235.095.117.15.288.15.511v.66c0 .555-.129.949-.385 1.194-.255.245-.66.373-1.214.373h-1.363l-.128.021a1.54 1.54 0 0 0-.192.085.654.654 0 0 0-.181.16.35.35 0 0 0-.086.234l.033.128.127.032h2.546c.246 0 .437.011.587.043a.693.693 0 0 1 .351.18.69.69 0 0 1 .18.363c.033.16.044.362.044.607v.16c0 .138-.022.266-.054.384a1.048 1.048 0 0 1-.255.362l-.533.532zm1.91-1.757h1.13v-5.327h-1.13v5.327zm0-6.158h1.13v-1.193h-1.13v1.193zm3.927-.447v1.278h1.48v.97h-1.48v2.918l.032.182.074.117a.508.508 0 0 0 .138.117.408.408 0 0 0 .203.053h1.129v.97l-.351.032c-.203.02-.48.032-.842.032-.224 0-.405-.032-.533-.096a1.73 1.73 0 0 1-.372-.245l-.31-.277a.742.742 0 0 1-.234-.362 1.778 1.778 0 0 1-.064-.523v-2.918h-.81v-.97h.81v-1.278h1.13zm3.607 5.028c0 .234.043.405.118.511.074.107.234.16.468.16h1.193a.45.45 0 0 0 .32-.15l.405-.393v-.788h-1.918c-.234 0-.394.053-.468.16-.075.106-.118.276-.118.5zm3.633 1.577h-.98v-.576c-.16.16-.31.299-.469.437-.16.139-.362.203-.607.203h-1.087c-.554 0-.958-.128-1.225-.395-.266-.266-.394-.681-.394-1.246 0-.564.128-.97.394-1.236.267-.266.671-.394 1.225-.394h2.014v-.564c0-.224-.032-.384-.107-.48-.074-.085-.234-.128-.468-.128h-.938c-.31 0-.564 0-.767.011l-.5.021-.288.022-.139.02v-.937c.181-.031.426-.074.714-.106.287-.032.618-.043.98-.043h1.034c.554 0 .958.128 1.225.395.255.266.383.67.383 1.225v3.77zm1.218 0h1.13v-7.35h-1.13zm-23.494 5.389c0-.309-.064-.522-.182-.639-.116-.117-.33-.181-.639-.181h-2.513v2.78h2.513c.31 0 .523-.063.64-.18.117-.118.18-.331.18-.64v-1.14zm-4.506-1.886h3.845c.565 0 1.012.15 1.343.437.33.299.49.725.49 1.29v1.459c0 .565-.16.99-.49 1.278-.33.299-.778.447-1.343.447h-1.651c-.245 0-.458-.01-.65-.031a3.736 3.736 0 0 1-.372-.032v2.503h-1.172v-7.35zm6.699 7.351v-5.326h1.012v.777l.352-.362.33-.32a.585.585 0 0 1 .394-.16c.352 0 .618.011.799.022l.32.043v.97h-1.076c-.054 0-.129.042-.224.127l-.256.234-.522.522v3.473h-1.129zm7.692-3.527c0-.17-.01-.308-.032-.414a.567.567 0 0 0-.117-.256.715.715 0 0 0-.256-.128 2.191 2.191 0 0 0-.415-.032h-.916c-.17 0-.31.01-.416.032a.591.591 0 0 0-.245.128.487.487 0 0 0-.128.256 2.167 2.167 0 0 0-.032.415v1.737c0 .17.01.308.032.415a.418.418 0 0 0 .128.245.418.418 0 0 0 .245.128c.107.021.245.032.416.032h.916c.17 0 .309-.011.415-.032a.482.482 0 0 0 .256-.128.478.478 0 0 0 .117-.245c.021-.107.032-.245.032-.415v-1.738zm1.13 1.738c0 .66-.14 1.129-.427 1.416-.287.288-.767.437-1.427.437h-1.108c-.66 0-1.13-.15-1.417-.437-.287-.287-.437-.756-.437-1.416v-1.738c0-.66.15-1.14.437-1.427.288-.288.756-.437 1.417-.437h1.108c.66 0 1.14.15 1.427.437.288.287.427.766.427 1.427v1.737zm4.804-2.078l-.363-.34a.569.569 0 0 0-.362-.15h-1.012c-.17 0-.309.01-.415.032a.588.588 0 0 0-.245.128.483.483 0 0 0-.128.256 2.185 2.185 0 0 0-.032.415v1.726c0 .16.01.298.032.405.02.106.064.191.128.255a.418.418 0 0 0 .245.128c.106.032.245.043.415.043h1.033a.484.484 0 0 0 .341-.16l.363-.373v-2.365zm-3.686.34c0-.66.149-1.139.436-1.426.288-.288.757-.437 1.417-.437h.906c.117 0 .223.021.32.053l.255.117.202.15.15.138v-2.418h1.129v7.35h-.99v-.575c-.16.16-.31.298-.47.437-.16.138-.35.202-.596.202h-.906c-.65 0-1.13-.15-1.417-.437-.287-.287-.436-.767-.436-1.427v-1.727zm7.163-1.8v3.772c0 .245.043.394.117.469.075.074.224.117.47.117h1.193a.46.46 0 0 0 .33-.139l.394-.383v-3.836h1.13v5.326h-.981v-.554c-.139.139-.298.267-.468.405a.938.938 0 0 1-.608.213h-1.097c-.554 0-.96-.128-1.214-.394-.267-.267-.395-.671-.395-1.225v-3.771h1.13zm6.658 5.391c-.66 0-1.129-.15-1.417-.437-.287-.287-.436-.756-.436-1.417v-1.736c0-.66.149-1.14.436-1.427.288-.288.757-.437 1.417-.437h.757c.266 0 .532.01.788.043l.671.106v.959l-.18-.021-.352-.022-.48-.021-.554-.01h-.554c-.17 0-.309.01-.415.031a.587.587 0 0 0-.245.128.481.481 0 0 0-.128.256 2.186 2.186 0 0 0-.032.415v1.736c0 .17.01.31.032.416.02.106.064.192.128.245a.416.416 0 0 0 .245.128c.106.02.245.032.415.032h.554l.554-.011.48-.021.351-.032.181-.011v.97l-.67.095a6.399 6.399 0 0 1-.79.043h-.756zm4.926-6.669v1.279h1.48v.97h-1.48v2.918l.032.181a.28.28 0 0 0 .074.117.511.511 0 0 0 .139.118.412.412 0 0 0 .203.053h1.129v.97a2.31 2.31 0 0 1-.352.03 8.37 8.37 0 0 1-.842.033c-.223 0-.404-.032-.532-.096a1.741 1.741 0 0 1-.373-.245l-.31-.277a.743.743 0 0 1-.233-.362 1.794 1.794 0 0 1-.064-.522v-2.919h-.81v-.97h.81v-1.278h1.129zm2.539 6.605h1.13v-5.326h-1.13v5.326zm0-6.157h1.13v-1.193h-1.13v1.193zm5.983 2.63c0-.17-.01-.308-.03-.414a.57.57 0 0 0-.118-.256.717.717 0 0 0-.256-.128 2.186 2.186 0 0 0-.415-.032h-.917c-.17 0-.308.01-.415.032a.59.59 0 0 0-.245.128.484.484 0 0 0-.128.256 2.184 2.184 0 0 0-.032.415v1.737c0 .17.011.308.032.415a.416.416 0 0 0 .128.245.417.417 0 0 0 .245.128c.107.021.245.032.415.032h.917c.17 0 .309-.011.415-.032a.484.484 0 0 0 .256-.128.48.48 0 0 0 .117-.245c.021-.107.032-.245.032-.415v-1.738zm1.13 1.738c0 .66-.139 1.129-.426 1.416-.288.288-.767.437-1.427.437h-1.109c-.66 0-1.129-.15-1.416-.437-.288-.287-.437-.756-.437-1.416v-1.738c0-.66.15-1.14.437-1.427.287-.288.756-.437 1.416-.437h1.109c.66 0 1.14.15 1.427.437.287.287.426.766.426 1.427v1.737zm4.804 1.789v-3.771c0-.234-.032-.394-.106-.469-.075-.074-.235-.117-.48-.117h-1.193a.46.46 0 0 0-.33.139l-.394.394v3.824h-1.13v-5.326h.981v.554l.224-.213.244-.203a2.38 2.38 0 0 1 .277-.149c.096-.032.214-.053.331-.053h1.097c.554 0 .959.128 1.225.394.255.266.384.671.384 1.225v3.771h-1.13z" mask="url(#b)"/></g></svg>